<svg width="8" height="13" viewBox="0 0 8 13" fill="none" xmlns="http://www.w3.org/2000/svg">
<path d="M0.237 7.21203L5.503 12.478C5.62463 12.5992 5.78932 12.6672 5.961 12.6672C6.13268 12.6672 6.29736 12.5992 6.419 12.478L6.807 12.09C6.9284 11.9685 6.99659 11.8038 6.99659 11.632C6.99659 11.4603 6.9284 11.2955 6.807 11.174L2.385 6.75203L6.812 2.32503C6.93315 2.20339 7.00117 2.0387 7.00117 1.86703C7.00117 1.69535 6.93315 1.53066 6.812 1.40903L6.424 1.02103C6.30236 0.899871 6.13768 0.831848 5.966 0.831848C5.79432 0.831848 5.62964 0.899871 5.508 1.02103L0.237 6.29303C0.115903 6.4153 0.0479736 6.58043 0.0479736 6.75253C0.0479736 6.92462 0.115903 7.08975 0.237 7.21203V7.21203Z" fill="#1D3A62"/>
</svg>
