<svg width="17" height="18" viewBox="0 0 17 18" fill="none" xmlns="http://www.w3.org/2000/svg">
<path d="M13.92 11.1278V6.59976C13.9299 5.85998 13.7928 5.12559 13.5165 4.43925C13.2402 3.75291 12.8304 3.12828 12.3107 2.60164C11.7911 2.075 11.172 1.65683 10.4894 1.37141C9.80685 1.086 9.07437 0.939026 8.33451 0.939026C7.59466 0.939026 6.86218 1.086 6.17959 1.37141C5.49701 1.65683 4.87792 2.075 4.35828 2.60164C3.83864 3.12828 3.42879 3.75291 3.15253 4.43925C2.87628 5.12559 2.73912 5.85998 2.74901 6.59976V11.1278L0.515015 15.6558H5.59801C5.71966 16.2924 6.05948 16.8667 6.55896 17.2798C7.05845 17.6929 7.68634 17.9189 8.33451 17.9189C8.98269 17.9189 9.61058 17.6929 10.1101 17.2798C10.6096 16.8667 10.9494 16.2924 11.071 15.6558H16.158L13.92 11.1278ZM8.33501 16.7878C7.98717 16.7867 7.64831 16.6772 7.36564 16.4745C7.08297 16.2717 6.87057 15.9859 6.75801 15.6568H9.90801C9.79573 15.9854 9.58397 16.2709 9.30211 16.4737C9.02026 16.6766 8.68226 16.7867 8.33501 16.7888V16.7878ZM2.19102 14.5238L3.86701 11.1238V6.59976C3.85815 6.00733 3.96718 5.41904 4.18777 4.86913C4.40835 4.31922 4.73609 3.81866 5.15191 3.39658C5.56772 2.97449 6.06332 2.63931 6.60987 2.41052C7.15642 2.18174 7.74301 2.06392 8.33551 2.06392C8.92802 2.06392 9.51461 2.18174 10.0612 2.41052C10.6077 2.63931 11.1033 2.97449 11.5191 3.39658C11.9349 3.81866 12.2627 4.31922 12.4833 4.86913C12.7038 5.41904 12.8129 6.00733 12.804 6.59976V11.1278L14.48 14.5278H2.19102V14.5238Z" fill="#1479FF"/>
</svg>
