<svg width="57" height="47" viewBox="0 0 57 47" fill="none" xmlns="http://www.w3.org/2000/svg">
<path d="M0.675964 14.6709C0.813964 13.9319 0.924957 13.1879 1.09296 12.4559C1.87137 9.10509 3.74774 6.1107 6.42365 3.94885C9.09955 1.787 12.4214 0.581773 15.861 0.524903C18.5945 0.408852 21.3323 0.450588 24.061 0.649903C31.341 1.4269 36.5441 5.26996 39.6611 11.887C40.7032 13.9135 41.1418 16.1965 40.925 18.465C40.971 18.508 40.999 18.556 41.025 18.553C41.4023 18.5048 41.7847 18.5878 42.1081 18.7881C42.4314 18.9884 42.676 19.2937 42.801 19.653C42.949 19.939 43.181 20.182 43.326 20.469C43.5 20.814 43.7341 20.8689 44.1041 20.8459C44.4741 20.8229 44.529 20.5779 44.624 20.3379C45.099 19.1379 45.561 17.9249 46.045 16.7239C46.1124 16.6021 46.1372 16.4613 46.1154 16.3239C46.0937 16.1864 46.0267 16.06 45.925 15.965C45.4804 15.4698 45.2477 14.8201 45.2767 14.1553C45.3057 13.4905 45.5941 12.8635 46.08 12.4089C46.5529 11.9552 47.1809 11.6987 47.8362 11.6914C48.4916 11.6842 49.1251 11.9267 49.608 12.3699C50.1016 12.8152 50.4017 13.4359 50.4439 14.0994C50.4861 14.7629 50.2673 15.4166 49.834 15.9209C49.7404 16.0131 49.6808 16.1345 49.6653 16.265C49.6499 16.3955 49.6794 16.5274 49.749 16.6389C49.983 17.1449 50.179 17.6679 50.419 18.1709C50.52 18.3208 50.642 18.4555 50.7811 18.5709C50.9072 18.4642 51.02 18.3427 51.117 18.209C51.3135 17.829 51.6012 17.5036 51.9543 17.2621C52.3074 17.0206 52.7149 16.8705 53.1403 16.8251C53.5657 16.7797 53.9957 16.8404 54.3918 17.002C54.7879 17.1635 55.1378 17.4208 55.4101 17.7507C55.6824 18.0807 55.8686 18.4729 55.9521 18.8925C56.0356 19.312 56.0137 19.7457 55.8885 20.1548C55.7632 20.5638 55.5385 20.9354 55.2344 21.2363C54.9303 21.5372 54.5564 21.758 54.1461 21.8789C53.5801 22.0502 52.9721 22.0185 52.4271 21.7892C51.882 21.5599 51.4343 21.1473 51.1611 20.6229C51.1107 20.4724 51.0067 20.3457 50.869 20.267C50.7312 20.1882 50.5692 20.1629 50.414 20.1959C50.1375 20.2519 49.8501 20.1964 49.6143 20.0415C49.3785 19.8866 49.2134 19.6449 49.155 19.3689C48.879 18.6099 48.5341 17.875 48.2031 17.137C48.1521 17.023 47.9971 16.854 47.9321 16.871C47.8622 16.8938 47.7978 16.9307 47.7427 16.9794C47.6877 17.028 47.6432 17.0874 47.612 17.1539C47.084 18.4719 46.5611 19.793 46.0731 21.126C46.0629 21.2296 46.0748 21.3342 46.1078 21.433C46.1409 21.5317 46.1946 21.6224 46.2651 21.699C46.5606 22.0411 46.7612 22.4548 46.8469 22.8987C46.9325 23.3426 46.9002 23.8012 46.7531 24.2288C46.606 24.6563 46.3495 25.0378 46.0089 25.3351C45.6682 25.6324 45.2556 25.8351 44.8121 25.923C44.3341 26.0364 43.8329 26.0025 43.3745 25.826C42.916 25.6496 42.5215 25.3386 42.243 24.934C41.9332 24.5526 41.748 24.0853 41.7122 23.5953C41.6765 23.1053 41.7919 22.6162 42.043 22.194C42.1336 22.0765 42.1799 21.9309 42.1736 21.7827C42.1674 21.6346 42.1091 21.4933 42.009 21.3839C41.764 21.0749 41.58 20.7179 41.345 20.4009C41.2985 20.3269 41.2324 20.2673 41.1541 20.2286C41.0758 20.1899 40.9884 20.1737 40.9014 20.1816C40.8144 20.1896 40.7313 20.2215 40.6613 20.2738C40.5914 20.3261 40.5373 20.3967 40.5051 20.4779C39.9051 21.6999 39.314 22.9309 38.659 24.1249C38.5422 24.2897 38.4816 24.488 38.4865 24.6899C38.4914 24.8919 38.5613 25.0869 38.686 25.246C39.466 26.434 40.212 27.6459 40.962 28.8519C41.185 29.1548 41.3374 29.5038 41.4079 29.8733C41.4784 30.2428 41.4652 30.6235 41.3693 30.9872C41.2734 31.3509 41.0971 31.6885 40.8536 31.9752C40.61 32.2619 40.3054 32.4904 39.962 32.6439C39.171 33.0709 38.379 33.4979 37.574 33.8989C37.4118 33.9728 37.2697 34.0846 37.1597 34.2249C37.0497 34.3651 36.975 34.5298 36.942 34.705C36.614 36.05 36.2501 37.3851 35.9061 38.7271C35.8282 39.2149 35.6471 39.6803 35.3748 40.0925C35.1025 40.5048 34.7454 40.8541 34.3272 41.1172C33.9091 41.3803 33.4396 41.5511 32.9501 41.6182C32.4607 41.6852 31.9626 41.6469 31.4891 41.5059C31.0841 41.4239 30.672 41.365 30.273 41.261C30.1638 41.2462 30.0588 41.2089 29.9647 41.1516C29.8705 41.0943 29.7892 41.0184 29.7259 40.9282C29.6625 40.8381 29.6185 40.7357 29.5965 40.6277C29.5745 40.5197 29.5751 40.4085 29.5982 40.3008C29.6213 40.193 29.6663 40.0912 29.7305 40.0017C29.7948 39.9122 29.8769 39.8368 29.9716 39.7805C30.0663 39.7242 30.1717 39.688 30.2811 39.6743C30.3904 39.6606 30.5013 39.6697 30.607 39.7009C31.107 39.7759 31.5971 39.886 32.0941 39.968C32.332 40.0242 32.5788 40.0311 32.8195 39.9888C33.0603 39.9464 33.2899 39.8557 33.4943 39.7217C33.6988 39.5877 33.8738 39.4133 34.0087 39.2095C34.1436 39.0056 34.2356 38.7764 34.279 38.5359C34.646 37.1449 35.03 35.7579 35.352 34.3569C35.4336 33.9324 35.6173 33.534 35.8871 33.1962C36.157 32.8584 36.505 32.5913 36.9011 32.418C37.6481 32.065 38.37 31.6579 39.101 31.2699C39.887 30.8529 40.014 30.4009 39.549 29.6549C38.787 28.4339 38.034 27.206 37.249 26.002C36.9668 25.6244 36.8127 25.1665 36.8091 24.6952C36.8055 24.2239 36.9527 23.7638 37.2291 23.382C38.0962 22.1626 38.7444 20.8016 39.145 19.36C39.5734 17.4481 39.3955 15.4501 38.636 13.6439C35.973 6.96292 31.083 3.04392 23.929 2.26892C20.5258 1.86472 17.0847 1.8983 13.69 2.3689C11.3169 2.79278 9.09594 3.83002 7.24762 5.37756C5.3993 6.92511 3.988 8.92916 3.15363 11.1908C2.31925 13.4524 2.09088 15.893 2.49127 18.2701C2.89166 20.6473 3.90679 22.8784 5.43597 24.7419C6.28297 25.8159 7.13596 26.8839 7.99396 27.9519C8.45698 28.5069 8.78302 29.1631 8.94562 29.8673C9.10822 30.5716 9.10285 31.3042 8.92999 32.006C7.93399 36.6293 6.94767 41.2545 5.97101 45.8818C5.80501 46.6588 5.20005 46.9958 4.66205 46.6108C4.50575 46.486 4.39381 46.3143 4.34283 46.1208C4.29186 45.9274 4.30449 45.7225 4.37897 45.5369C4.77897 43.6549 5.18164 41.7732 5.58698 39.8918C6.17498 37.1492 6.76363 34.4066 7.35297 31.6639C7.46954 31.1904 7.47177 30.696 7.35944 30.2214C7.24711 29.7469 7.02345 29.3059 6.70697 28.9349C5.75397 27.7609 4.80707 26.5819 3.88507 25.3829C2.14455 23.1359 1.0669 20.447 0.773987 17.6199C0.750126 17.4981 0.716713 17.3785 0.674011 17.262L0.675964 14.6709ZM44.306 22.4459C44.1801 22.4451 44.0554 22.4695 43.939 22.5175C43.8226 22.5654 43.717 22.636 43.6282 22.7253C43.5395 22.8146 43.4694 22.9208 43.4222 23.0375C43.3749 23.1542 43.3514 23.279 43.353 23.4049C43.3535 23.6595 43.4544 23.9036 43.6337 24.0842C43.8131 24.2649 44.0564 24.3675 44.311 24.3699C44.565 24.3611 44.8062 24.256 44.9854 24.0758C45.1647 23.8956 45.2686 23.6539 45.2761 23.3999C45.2724 23.1447 45.168 22.9014 44.9858 22.7228C44.8036 22.5441 44.5582 22.4446 44.303 22.4459H44.306ZM53.3961 20.3669C53.6505 20.3663 53.8947 20.2671 54.0775 20.0901C54.2602 19.9131 54.3672 19.6722 54.376 19.418C54.3779 19.292 54.3549 19.1669 54.3083 19.0498C54.2617 18.9327 54.1925 18.826 54.1047 18.7357C54.0168 18.6454 53.912 18.5733 53.7962 18.5236C53.6804 18.4738 53.556 18.4475 53.43 18.4459C53.1757 18.4419 52.93 18.5379 52.7459 18.7134C52.5618 18.8889 52.4541 19.1297 52.446 19.3839C52.4483 19.6383 52.5482 19.882 52.7249 20.0649C52.9017 20.2478 53.1419 20.3559 53.3961 20.3669V20.3669ZM47.882 15.2289C48.0078 15.2277 48.1322 15.2018 48.2479 15.1523C48.3636 15.1029 48.4683 15.0311 48.5561 14.941C48.6439 14.851 48.7131 14.7445 48.7596 14.6276C48.8061 14.5107 48.8289 14.3857 48.827 14.2599C48.8186 14.0058 48.7113 13.765 48.5278 13.589C48.3443 13.413 48.0993 13.3158 47.845 13.318C47.7192 13.3202 47.5951 13.3473 47.4799 13.3978C47.3647 13.4484 47.2607 13.5213 47.1739 13.6124C47.0871 13.7035 47.0193 13.8108 46.9743 13.9283C46.9294 14.0459 46.9082 14.1711 46.912 14.2969C46.9115 14.4227 46.9365 14.5473 46.9855 14.6632C47.0346 14.7791 47.1066 14.8838 47.1973 14.9711C47.288 15.0583 47.3954 15.1262 47.5131 15.1707C47.6308 15.2152 47.7563 15.2354 47.882 15.23V15.2289Z" fill="#1D3A62"/>
<path d="M11.786 23.0059C11.741 22.1243 11.7466 21.2409 11.803 20.3599C11.9268 19.3949 12.394 18.5067 13.1189 17.8578C13.8439 17.2088 14.7782 16.8425 15.751 16.8259C16.363 16.8089 16.976 16.8099 17.588 16.8259C17.7007 16.8158 17.8142 16.8292 17.9214 16.8652C18.0286 16.9012 18.1272 16.9591 18.2109 17.0351C18.2947 17.1111 18.3617 17.2036 18.4078 17.3068C18.454 17.4101 18.4782 17.5219 18.479 17.635C18.4743 17.7478 18.4468 17.8586 18.3982 17.9605C18.3496 18.0625 18.2808 18.1536 18.1961 18.2284C18.1113 18.3031 18.0124 18.3598 17.9052 18.3953C17.7979 18.4309 17.6846 18.4443 17.572 18.4349C17.014 18.4499 16.455 18.435 15.897 18.443C15.2402 18.4329 14.6058 18.6812 14.1304 19.1344C13.6549 19.5876 13.3764 20.2095 13.355 20.8661C13.3191 21.5322 13.3191 22.1999 13.355 22.8661C13.3719 22.9513 13.4093 23.0312 13.4638 23.099C13.5183 23.1667 13.5883 23.2202 13.668 23.255C15.2106 23.7268 16.8584 23.7319 18.4041 23.2699C19.2107 23.0434 19.921 22.5593 20.4266 21.8912C20.9322 21.2231 21.2053 20.4078 21.204 19.5699C21.254 18.6519 21.47 18.448 22.397 18.447C24.882 18.447 27.3671 18.461 29.8521 18.442C30.5506 18.4734 31.2433 18.3028 31.8474 17.9505C32.4515 17.5983 32.9413 17.0793 33.2581 16.4559C33.4462 16.1423 33.5443 15.783 33.5416 15.4173C33.539 15.0516 33.4357 14.6937 33.243 14.3829C32.5996 15.2427 31.6749 15.8497 30.63 16.098C30.0299 16.2101 29.4206 16.265 28.8101 16.2619C28.6966 16.2702 28.5825 16.2536 28.4761 16.2132C28.3697 16.1728 28.2735 16.1096 28.1941 16.028C28.1147 15.9465 28.0541 15.8485 28.0166 15.7411C27.9791 15.6336 27.9657 15.5192 27.9771 15.406C27.9781 15.2968 28.0027 15.1891 28.0492 15.0903C28.0957 14.9915 28.1629 14.9039 28.2463 14.8335C28.3298 14.763 28.4275 14.7113 28.5327 14.6821C28.6379 14.6528 28.7481 14.6466 28.856 14.6639C29.5139 14.7391 30.1797 14.625 30.775 14.335C31.3704 14.0451 31.8706 13.5913 32.217 13.0269C32.3437 12.8389 32.4173 12.6202 32.4301 12.3939C32.4077 11.2794 31.9674 10.214 31.1965 9.4089C30.4257 8.60375 29.3805 8.1177 28.2681 8.04696C28.1289 8.03928 27.9926 8.00361 27.8676 7.9421C27.7425 7.88059 27.6311 7.79446 27.54 7.68893C27.0961 7.10792 26.5317 6.62977 25.8856 6.28732C25.2396 5.94486 24.5271 5.7462 23.797 5.70492C22.9381 5.53895 22.051 5.59371 21.219 5.86398C21.219 6.57998 21.178 7.28199 21.229 7.97799C21.2679 8.42414 21.4761 8.83842 21.8108 9.13595C22.1455 9.43348 22.5814 9.59166 23.0291 9.57797C23.6771 9.59597 24.329 9.57298 24.974 9.58798C25.0791 9.58528 25.1837 9.60324 25.2817 9.64095C25.3798 9.67867 25.4695 9.73532 25.5457 9.8077C25.6219 9.88009 25.683 9.9668 25.7257 10.0628C25.7684 10.1589 25.7919 10.2623 25.7946 10.3674C25.7973 10.4725 25.7792 10.577 25.7415 10.6751C25.7037 10.7732 25.6471 10.863 25.5747 10.9392C25.5023 11.0154 25.4156 11.0765 25.3196 11.1192C25.2236 11.1619 25.1201 11.1853 25.015 11.188C24.1347 11.2308 23.2523 11.2047 22.376 11.1099C21.6118 10.9901 20.9142 10.605 20.4055 10.0223C19.8968 9.43956 19.6096 8.69631 19.594 7.92294C19.5621 7.36539 19.5621 6.80653 19.594 6.24899C19.628 5.81499 19.433 5.64892 19.062 5.53292C17.8189 5.20215 16.5065 5.23937 15.2841 5.63998C14.2722 5.90194 13.334 6.39284 12.542 7.07491C12.723 7.15691 12.864 7.22297 13.006 7.28597C13.7919 7.59526 14.4667 8.13344 14.9431 8.83077C15.4195 9.5281 15.6756 10.3525 15.678 11.197C15.735 12.472 16.107 12.8559 17.386 12.8599C17.6556 12.8473 17.9257 12.8597 18.193 12.8969C18.2927 12.9074 18.3892 12.9382 18.4766 12.9874C18.5639 13.0366 18.6404 13.1031 18.7011 13.1829C18.7618 13.2628 18.8055 13.3542 18.8296 13.4515C18.8537 13.5488 18.8576 13.6501 18.8411 13.749C18.8432 13.845 18.8256 13.9405 18.7893 14.0294C18.753 14.1183 18.6988 14.1988 18.63 14.2658C18.5613 14.3329 18.4795 14.3851 18.3897 14.4192C18.2999 14.4532 18.204 14.4685 18.108 14.464C17.5158 14.5051 16.9208 14.4836 16.333 14.4C15.6653 14.2579 15.07 13.8824 14.6542 13.341C14.2383 12.7996 14.029 12.1277 14.064 11.4459C14.1166 10.8288 13.9462 10.2134 13.5836 9.71139C13.221 9.20933 12.6903 8.85395 12.088 8.70992C11.5503 8.59269 10.99 8.63649 10.4771 8.8359C9.75739 9.13124 9.11248 9.58325 8.58924 10.1589C8.066 10.7345 7.67754 11.4194 7.45203 12.1639C7.34016 12.3833 7.27667 12.6243 7.26588 12.8703C7.25509 13.1164 7.2973 13.3618 7.38953 13.5902C7.48177 13.8185 7.6219 14.0245 7.80055 14.1941C7.97919 14.3636 8.19218 14.4928 8.42506 14.573C8.93569 14.8618 9.50059 15.0417 10.0842 15.1013C10.6679 15.1608 11.2576 15.0987 11.816 14.9189C12.131 14.8243 12.4701 14.8525 12.765 14.9979C12.8873 15.0855 12.9813 15.2069 13.0357 15.3471C13.09 15.4874 13.1025 15.6404 13.0713 15.7876C13.0401 15.9347 12.9667 16.0695 12.8601 16.1756C12.7535 16.2817 12.6182 16.3545 12.471 16.385C11.6339 16.7023 10.7337 16.8167 9.84388 16.7188C8.95407 16.621 8.10011 16.3137 7.35206 15.822C7.15206 15.701 6.96904 15.564 6.60804 15.322C6.55904 16.122 6.48099 16.7909 6.48499 17.4589C6.48899 18.1269 6.11306 18.617 5.55506 18.448C5.4043 18.3942 5.26763 18.307 5.1554 18.1928C5.04318 18.0787 4.95824 17.9405 4.90699 17.7889C4.77604 17.1706 4.77123 16.5322 4.89271 15.912C5.01419 15.2917 5.25949 14.7022 5.61402 14.1789C5.70431 14.0497 5.74966 13.8944 5.74305 13.7369C5.48205 11.1549 6.76305 9.33693 8.74305 7.96993C9.74305 7.28393 10.6661 6.5339 11.6121 5.7889C12.7717 4.76102 14.1941 4.0757 15.7207 3.80941C17.2473 3.54312 18.8178 3.70641 20.257 4.28097C20.4191 4.3327 20.5929 4.33619 20.757 4.29098C21.887 3.97006 23.074 3.90224 24.2333 4.09237C25.3926 4.2825 26.4956 4.72588 27.464 5.39095C28.2564 5.96654 29.1251 6.42901 30.0451 6.76498C31.2051 7.18456 32.21 7.94713 32.9263 8.9515C33.6425 9.95588 34.0363 11.1544 34.0551 12.3879C34.0526 12.5794 34.1118 12.7667 34.224 12.922C34.8569 13.6754 35.1841 14.639 35.1408 15.622C35.0974 16.6051 34.6867 17.5361 33.99 18.2309C33.4849 18.8103 32.8606 19.2739 32.1599 19.5899C31.4592 19.9059 30.6987 20.0668 29.9301 20.0619C28.1831 20.0879 26.436 20.0689 24.689 20.0709C24.6 20.0709 24.5121 20.0849 24.3471 20.0999C24.3471 20.2999 24.3471 20.4871 24.3471 20.6781C24.3471 21.8851 24.374 23.092 24.337 24.297C24.341 25.2321 24.0711 26.1478 23.5608 26.9315C23.0505 27.7151 22.3218 28.3323 21.465 28.7069C20.627 29.1179 19.7451 29.4379 18.8831 29.7989C18.1979 30.0422 17.6099 30.5007 17.2072 31.106C16.8044 31.7114 16.6087 32.4309 16.6491 33.1568C16.6491 33.9128 16.6541 34.6699 16.6491 35.4259C16.6431 36.0199 16.342 36.377 15.858 36.391C15.358 36.405 15.0261 36.0359 15.0341 35.4139C14.998 34.3176 15.0314 33.2201 15.134 32.128C15.2455 31.3009 15.576 30.5185 16.0916 29.8621C16.6071 29.2058 17.2889 28.6991 18.066 28.3949C18.902 28.0189 19.761 27.695 20.601 27.328C21.2472 27.086 21.8008 26.6465 22.1831 26.0721C22.5655 25.4977 22.7571 24.8176 22.731 24.128C22.738 23.054 22.731 21.9789 22.647 20.8919C22.574 21.1049 22.507 21.3199 22.426 21.5289C22.0294 22.5524 21.3434 23.4384 20.4518 24.0787C19.5602 24.719 18.5016 25.086 17.405 25.1349C16.841 25.2069 16.5301 25.3099 16.3881 25.9349C16.1607 26.8163 15.6502 27.5988 14.9351 28.162C14.4318 28.5742 14.0345 29.101 13.7766 29.6983C13.5188 30.2956 13.4078 30.9461 13.453 31.5951C13.491 32.8551 13.465 34.116 13.458 35.377C13.458 36.036 13.177 36.3829 12.672 36.3949C12.167 36.4069 11.847 36.0509 11.843 35.4139C11.834 33.9909 11.83 32.5688 11.843 31.1458C11.8394 30.3872 12.0003 29.6369 12.3145 28.9464C12.6286 28.2559 13.0887 27.6415 13.663 27.1458C14.2934 26.6435 14.7391 25.9461 14.9301 25.1629C13.7931 25.1319 12.784 24.5929 11.614 24.6319C10.5717 24.6373 9.54584 24.3711 8.6377 23.8595C7.72956 23.3478 6.97048 22.6083 6.43507 21.714C6.37158 21.6317 6.32526 21.5376 6.29908 21.4371C6.2729 21.3366 6.26741 21.2317 6.28272 21.129C6.29804 21.0263 6.33395 20.9277 6.38831 20.8392C6.44268 20.7507 6.5143 20.674 6.59901 20.6139C6.68479 20.5472 6.78328 20.4987 6.88844 20.4713C6.99359 20.4439 7.10316 20.4383 7.21058 20.4547C7.318 20.4711 7.42097 20.509 7.51319 20.5665C7.60541 20.624 7.68494 20.6997 7.74696 20.7889C8.03989 21.153 8.35096 21.5022 8.67896 21.835C9.08241 22.2419 9.56873 22.5568 10.1049 22.7589C10.641 22.9609 11.2144 23.0453 11.786 23.0059V23.0059Z" fill="#1D3A62"/>
<path d="M23.477 39.978C23.294 40.95 23.113 41.8979 22.937 42.8469C22.747 43.8709 22.5661 44.8979 22.3721 45.9219C22.2571 46.5269 21.872 46.8469 21.385 46.7519C20.898 46.6569 20.667 46.268 20.774 45.667C21.174 43.439 21.584 41.2127 22.004 38.988C22.0095 38.8591 22.0451 38.7332 22.1081 38.6206C22.1712 38.508 22.2599 38.4119 22.3669 38.3398C22.474 38.2678 22.5964 38.222 22.7245 38.206C22.8525 38.1901 22.9825 38.2045 23.104 38.248C24.3227 38.474 25.5393 38.7119 26.754 38.9619C27.333 39.0809 27.593 39.4539 27.49 39.9499C27.4654 40.0601 27.418 40.1638 27.3508 40.2544C27.2836 40.345 27.1982 40.4204 27.1 40.4758C27.0017 40.5313 26.8929 40.5655 26.7806 40.5762C26.6683 40.5869 26.5549 40.5738 26.448 40.5378C25.475 40.3588 24.507 40.172 23.477 39.978Z" fill="#1D3A62"/>
</svg>
