<svg width="24" height="24" viewBox="0 0 24 24" fill="none" xmlns="http://www.w3.org/2000/svg">
<path opacity="0.5" d="M4.4383 17.8273V7.81307C4.4383 6.92785 4.80043 6.07888 5.44503 5.45294C6.08963 4.827 6.9639 4.47534 7.8755 4.47534H5.29706C4.84568 4.47534 4.39872 4.56168 3.9817 4.72941C3.56468 4.89715 3.18577 5.143 2.86659 5.45294C2.54742 5.76288 2.29424 6.13082 2.1215 6.53577C1.94877 6.94072 1.85986 7.37475 1.85986 7.81307V17.8273C1.85986 18.2656 1.94877 18.6996 2.1215 19.1046C2.29424 19.5095 2.54742 19.8775 2.86659 20.1874C3.18577 20.4973 3.56468 20.7432 3.9817 20.9109C4.39872 21.0787 4.84568 21.165 5.29706 21.165H7.8755C6.9639 21.165 6.08963 20.8133 5.44503 20.1874C4.80043 19.5615 4.4383 18.7125 4.4383 17.8273Z" fill="#8C97AB"/>
<path d="M18.703 3.64031H17.8431V2.80535C17.8352 2.58917 17.7412 2.3844 17.5809 2.23418C17.4207 2.08395 17.2066 2 16.9838 2C16.7611 2 16.547 2.08395 16.3867 2.23418C16.2264 2.3844 16.1324 2.58917 16.1245 2.80535V3.64031H7.87547V2.80535C7.86757 2.58917 7.77358 2.3844 7.6133 2.23418C7.45301 2.08395 7.23894 2 7.01617 2C6.79341 2 6.57934 2.08395 6.41905 2.23418C6.25877 2.3844 6.16477 2.58917 6.15688 2.80535V3.64031H5.29704C4.15774 3.64143 3.06544 4.08141 2.25984 4.8637C1.45424 5.64599 1.00115 6.70669 1 7.81302V17.8304C1.002 18.9362 1.45547 19.9961 2.26098 20.7777C3.06649 21.5593 4.1583 21.9989 5.29704 22H18.7084C19.8462 21.9975 20.9366 21.5573 21.7409 20.7759C22.5453 19.9944 22.998 18.9353 23 17.8304V7.81302C22.9989 6.70669 22.5458 5.64599 21.7402 4.8637C20.9346 4.08141 19.8423 3.64143 18.703 3.64031ZM21.2814 17.8304C21.2808 18.4943 21.009 19.1309 20.5256 19.6003C20.0421 20.0697 19.3866 20.3337 18.703 20.3343H5.29704C4.61337 20.3337 3.95786 20.0697 3.47444 19.6003C2.99101 19.1309 2.71917 18.4943 2.7186 17.8304V7.81302C2.71917 7.14913 2.99101 6.51259 3.47444 6.04315C3.95786 5.57372 4.61337 5.30974 5.29704 5.30918H18.7084C19.392 5.30974 20.0475 5.57372 20.531 6.04315C21.0144 6.51259 21.2862 7.14913 21.2868 7.81302L21.2814 17.8304Z" fill="#8C97AB"/>
<path d="M12.8589 10.3171H11.1403C11.0249 10.321 10.9099 10.3024 10.8021 10.2623C10.6942 10.2221 10.5958 10.1613 10.5127 10.0834C10.4296 10.0055 10.3635 9.91221 10.3184 9.80899C10.2733 9.70577 10.25 9.59477 10.25 9.48264C10.25 9.3705 10.2733 9.25951 10.3184 9.1563C10.3635 9.05308 10.4296 8.95975 10.5127 8.88188C10.5958 8.804 10.6942 8.74318 10.8021 8.70304C10.9099 8.66289 11.0249 8.64425 11.1403 8.64823H12.8589C12.9743 8.64425 13.0894 8.66289 13.1972 8.70304C13.305 8.74318 13.4034 8.804 13.4865 8.88188C13.5696 8.95975 13.6357 9.05308 13.6809 9.1563C13.726 9.25951 13.7493 9.3705 13.7493 9.48264C13.7493 9.59477 13.726 9.70577 13.6809 9.80899C13.6357 9.91221 13.5696 10.0055 13.4865 10.0834C13.4034 10.1613 13.305 10.2221 13.1972 10.2623C13.0894 10.3024 12.9743 10.321 12.8589 10.3171Z" fill="#8C97AB"/>
<path d="M18.7032 10.3169H16.9846C16.762 10.3092 16.5511 10.2179 16.3964 10.0622C16.2417 9.9066 16.1553 9.69872 16.1553 9.48239C16.1553 9.26607 16.2417 9.05819 16.3964 8.90254C16.5511 8.74689 16.762 8.65562 16.9846 8.64795H18.7032C18.9258 8.65562 19.1367 8.74689 19.2914 8.90254C19.4461 9.05819 19.5326 9.26607 19.5326 9.48239C19.5326 9.69872 19.4461 9.9066 19.2914 10.0622C19.1367 10.2179 18.9258 10.3092 18.7032 10.3169Z" fill="#8C97AB"/>
<path d="M7.01568 13.6547H5.29707C5.18166 13.6587 5.06661 13.64 4.95878 13.5999C4.85095 13.5598 4.75255 13.4989 4.66946 13.4211C4.58636 13.3432 4.52027 13.2499 4.47514 13.1466C4.43 13.0434 4.40674 12.9324 4.40674 12.8203C4.40674 12.7082 4.43 12.5972 4.47514 12.4939C4.52027 12.3907 4.58636 12.2974 4.66946 12.2195C4.75255 12.1417 4.85095 12.0808 4.95878 12.0407C5.06661 12.0005 5.18166 11.9819 5.29707 11.9859H7.01568C7.23831 11.9935 7.44918 12.0848 7.60388 12.2405C7.75858 12.3961 7.84503 12.604 7.84503 12.8203C7.84503 13.0366 7.75858 13.2445 7.60388 13.4001C7.44918 13.5558 7.23831 13.647 7.01568 13.6547Z" fill="#8C97AB"/>
<path d="M12.8589 13.6547H11.1403C11.0249 13.6587 10.9099 13.64 10.8021 13.5999C10.6942 13.5598 10.5958 13.4989 10.5127 13.4211C10.4296 13.3432 10.3635 13.2499 10.3184 13.1466C10.2733 13.0434 10.25 12.9324 10.25 12.8203C10.25 12.7082 10.2733 12.5972 10.3184 12.4939C10.3635 12.3907 10.4296 12.2974 10.5127 12.2195C10.5958 12.1417 10.6942 12.0808 10.8021 12.0407C10.9099 12.0005 11.0249 11.9819 11.1403 11.9859H12.8589C13.0816 11.9935 13.2924 12.0848 13.4471 12.2405C13.6018 12.3961 13.6883 12.604 13.6883 12.8203C13.6883 13.0366 13.6018 13.2445 13.4471 13.4001C13.2924 13.5558 13.0816 13.647 12.8589 13.6547Z" fill="#8C97AB"/>
<path d="M18.7032 13.6547H16.9846C16.762 13.647 16.5511 13.5557 16.3964 13.4001C16.2417 13.2444 16.1553 13.0366 16.1553 12.8202C16.1553 12.6039 16.2417 12.3961 16.3964 12.2404C16.5511 12.0848 16.762 11.9935 16.9846 11.9858H18.7032C18.9258 11.9935 19.1367 12.0848 19.2914 12.2404C19.4461 12.3961 19.5326 12.6039 19.5326 12.8202C19.5326 13.0366 19.4461 13.2444 19.2914 13.4001C19.1367 13.5557 18.9258 13.647 18.7032 13.6547Z" fill="#8C97AB"/>
<path d="M7.01572 16.9935H5.29712C5.07449 16.9859 4.86363 16.8946 4.70893 16.7389C4.55423 16.5833 4.46777 16.3754 4.46777 16.1591C4.46777 15.9428 4.55423 15.7349 4.70893 15.5793C4.86363 15.4236 5.07449 15.3324 5.29712 15.3247H7.01572C7.23834 15.3324 7.44921 15.4236 7.60391 15.5793C7.75861 15.7349 7.84506 15.9428 7.84506 16.1591C7.84506 16.3754 7.75861 16.5833 7.60391 16.7389C7.44921 16.8946 7.23834 16.9859 7.01572 16.9935Z" fill="#8C97AB"/>
<path d="M12.8589 16.9936H11.1403C11.0249 16.9975 10.9099 16.9789 10.8021 16.9388C10.6942 16.8986 10.5958 16.8378 10.5127 16.7599C10.4296 16.682 10.3635 16.5887 10.3184 16.4855C10.2733 16.3823 10.25 16.2713 10.25 16.1592C10.25 16.047 10.2733 15.936 10.3184 15.8328C10.3635 15.7296 10.4296 15.6363 10.5127 15.5584C10.5958 15.4805 10.6942 15.4197 10.8021 15.3796C10.9099 15.3394 11.0249 15.3208 11.1403 15.3247H12.8589C13.0816 15.3324 13.2924 15.4237 13.4471 15.5793C13.6018 15.735 13.6883 15.9428 13.6883 16.1592C13.6883 16.3755 13.6018 16.5833 13.4471 16.739C13.2924 16.8946 13.0816 16.9859 12.8589 16.9936Z" fill="#8C97AB"/>
</svg>
