<svg width="24" height="24" viewBox="0 0 24 24" fill="none" xmlns="http://www.w3.org/2000/svg">
<path d="M4.71077 7.30336L2.92755 5.52014C2.56839 5.16098 2.56493 4.58212 2.92541 4.22164C3.28339 3.86366 3.8661 3.86597 4.22391 4.22378L19.776 19.7758C20.1351 20.135 20.1386 20.7139 19.7781 21.0743C19.4201 21.4323 18.8374 21.43 18.4796 21.0722L16.0175 18.6101C14.7826 19.0792 13.4435 19.3331 11.9999 19.3331C8.72512 19.3331 5.9878 18.0262 3.78522 15.8655C3.02098 15.1158 2.37618 14.3142 1.84534 13.5112C1.52297 13.0235 1.30693 12.6369 1.19316 12.4008C1.13995 12.2903 1 12.0002 1 12.0002C1 12.0002 1.14019 11.7088 1.19316 11.5989C1.30693 11.3628 1.52297 10.9761 1.84534 10.4884C2.37618 9.68542 3.02098 8.88383 3.78522 8.13413C4.0839 7.84113 4.39241 7.56383 4.71077 7.30336ZM14.3712 16.9638L12.9497 15.5423C12.6468 15.6233 12.3284 15.6665 11.9999 15.6665C9.9749 15.6665 8.33328 14.0249 8.33328 11.9998C8.33328 11.6714 8.37647 11.353 8.45748 11.0501L7.03596 9.62855C6.69236 10.3465 6.49995 11.1507 6.49995 11.9998C6.49995 15.0374 8.96238 17.4998 11.9999 17.4998C12.849 17.4998 13.6532 17.3074 14.3712 16.9638ZM7.98238 5.38952C9.21729 4.92043 10.5564 4.66648 11.9999 4.66648C15.2748 4.66648 18.0121 5.97345 20.2147 8.13413C20.9789 8.88383 21.6237 9.68542 22.1546 10.4884C22.4769 10.9761 22.693 11.3628 22.8067 11.5989C22.86 11.7095 23 12.0002 23 12.0002C23 12.0002 22.8596 12.291 22.8067 12.4008C22.693 12.6369 22.4769 13.0235 22.1546 13.5112C21.6237 14.3142 20.9789 15.1158 20.2147 15.8655C19.916 16.1585 19.6075 16.4358 19.2891 16.6963L16.9639 14.3711C17.3075 13.6531 17.4999 12.8489 17.4999 11.9998C17.4999 8.96225 15.0375 6.49981 11.9999 6.49981C11.1508 6.49981 10.3467 6.69223 9.62868 7.03583L7.98238 5.38952Z" fill="#8C97AB"/>
<path d="M11.8229 9C11.5383 9 11.2625 9.03742 11 9.10761L14.8924 13C14.9626 12.7375 15 12.4617 15 12.1771C15 10.4224 13.5776 9 11.8229 9Z" fill="#8C97AB"/>
</svg>
