<svg width="15" height="17" viewBox="0 0 15 17" fill="none" xmlns="http://www.w3.org/2000/svg">
<path d="M6.72673 13.0501C8.45573 13.0501 6.92672 13.0501 8.65272 13.0561C8.74423 13.0726 8.83858 13.0526 8.91557 13.0005C8.99256 12.9484 9.0461 12.8682 9.06474 12.7771C9.31243 12.1086 9.79189 11.5512 10.4159 11.2063C11.0399 10.8615 11.7669 10.7521 12.4647 10.8981C13.151 11.0367 13.7669 11.4114 14.2054 11.9572C14.6439 12.5029 14.8772 13.1851 14.8647 13.8851C14.8542 14.5972 14.59 15.2822 14.1196 15.8171C13.6493 16.3519 13.0037 16.7016 12.2987 16.8031C11.6186 16.9013 10.9255 16.7623 10.3358 16.4096C9.74607 16.0568 9.29583 15.5118 9.06074 14.8661C9.04583 14.7861 9.00054 14.715 8.93437 14.6676C8.86819 14.6203 8.78625 14.6004 8.70573 14.6121C5.21473 14.6201 4.98472 14.6121 1.49372 14.6211C1.32633 14.6389 1.15755 14.6044 1.01054 14.5224C0.863532 14.4404 0.745534 14.3149 0.67274 14.1631C0.615451 14.0427 0.590119 13.9096 0.599223 13.7766C0.608327 13.6436 0.651554 13.5152 0.724711 13.4038C0.797868 13.2923 0.898509 13.2016 1.01692 13.1403C1.13533 13.0791 1.26751 13.0494 1.40074 13.0541C2.40074 13.0471 3.39072 13.0541 4.38572 13.0541H6.73472L6.72673 13.0501ZM11.8497 15.2581C12.0376 15.2594 12.2239 15.2234 12.3978 15.1522C12.5717 15.081 12.7298 14.976 12.8628 14.8432C12.9958 14.7105 13.1011 14.5527 13.1727 14.379C13.2443 14.2052 13.2807 14.019 13.2797 13.8311C13.2801 13.6433 13.2434 13.4573 13.1715 13.2837C13.0997 13.1102 12.9942 12.9526 12.8612 12.8201C12.7282 12.6875 12.5702 12.5826 12.3964 12.5114C12.2227 12.4401 12.0365 12.404 11.8487 12.4051C11.6608 12.4036 11.4745 12.4395 11.3005 12.5108C11.1266 12.582 10.9686 12.6872 10.8357 12.8201C10.7028 12.953 10.5977 13.111 10.5264 13.2849C10.4552 13.4588 10.4193 13.6452 10.4207 13.8331C10.4191 14.0211 10.455 14.2075 10.5263 14.3815C10.5976 14.5555 10.7028 14.7135 10.8358 14.8464C10.9689 14.9792 11.127 15.0843 11.3011 15.1553C11.4752 15.2263 11.6617 15.262 11.8497 15.2601V15.2581Z" fill="white"/>
<path d="M8.70976 4.5771C6.98076 4.5771 8.50977 4.57711 6.78377 4.57211C6.69226 4.5556 6.59791 4.57553 6.52092 4.62767C6.44393 4.67981 6.39042 4.76 6.37178 4.8511C6.12409 5.51963 5.64463 6.07701 5.02065 6.42186C4.39666 6.7667 3.66959 6.87609 2.97176 6.7301C2.28553 6.59151 1.66962 6.21675 1.23113 5.671C0.792632 5.12526 0.55931 4.44307 0.571763 3.7431C0.582336 3.03095 0.846523 2.34592 1.31685 1.81108C1.78718 1.27623 2.43282 0.926634 3.13777 0.825102C3.81785 0.727081 4.51095 0.86612 5.1006 1.21885C5.69025 1.57159 6.14053 2.11652 6.37578 2.7621C6.39069 2.84209 6.43598 2.91322 6.50215 2.96057C6.56833 3.00792 6.65024 3.02782 6.73076 3.01611C10.2218 3.00811 10.4518 3.01611 13.9428 3.00711C14.1102 2.98932 14.2789 3.02379 14.426 3.1058C14.573 3.18781 14.691 3.31332 14.7638 3.4651C14.8211 3.58547 14.8464 3.71858 14.8373 3.85158C14.8282 3.98458 14.785 4.11298 14.7118 4.22442C14.6387 4.33587 14.538 4.42659 14.4196 4.48784C14.3012 4.54908 14.169 4.5788 14.0358 4.57411C13.0358 4.58111 12.0458 4.57411 11.0508 4.57411H8.70976V4.5771ZM3.58678 2.36911C3.39887 2.36778 3.21255 2.40377 3.03865 2.47497C2.86475 2.54618 2.70673 2.65118 2.57372 2.78392C2.4407 2.91665 2.33535 3.07446 2.26378 3.24821C2.19221 3.42196 2.15582 3.6082 2.15675 3.79611C2.15635 3.98399 2.19319 4.17009 2.26509 4.34367C2.33699 4.51725 2.44254 4.67489 2.57567 4.80746C2.7088 4.94004 2.86687 5.04493 3.04076 5.1161C3.21464 5.18727 3.40088 5.22329 3.58876 5.22211C3.7767 5.22357 3.96306 5.18764 4.13698 5.11639C4.31089 5.04515 4.4689 4.94001 4.60179 4.80711C4.73469 4.67422 4.83981 4.51621 4.91106 4.3423C4.9823 4.16838 5.01824 3.98205 5.01677 3.79411C5.01824 3.60657 4.98237 3.4206 4.91127 3.24705C4.84018 3.0735 4.73526 2.91583 4.60265 2.78322C4.47003 2.6506 4.31236 2.54569 4.13881 2.47459C3.96526 2.4035 3.77932 2.36764 3.59178 2.36911H3.58678Z" fill="white"/>
</svg>
