<svg width="40" height="44" viewBox="0 0 40 44" fill="none" xmlns="http://www.w3.org/2000/svg">
<path d="M32.356 9.62299C32.746 8.4155 32.7935 7.12353 32.4934 5.89063C32.1933 4.65773 31.5573 3.53217 30.656 2.63899C29.39 1.37799 27.6759 0.669983 25.889 0.669983C24.1021 0.669983 22.388 1.37799 21.122 2.63899C20.9969 2.77175 20.8455 2.8769 20.6774 2.94768C20.5094 3.01846 20.3283 3.05331 20.146 3.04999C19.7912 3.04001 19.4542 2.89265 19.206 2.63899C17.9399 1.37799 16.2259 0.669983 14.439 0.669983C12.6521 0.669983 10.938 1.37799 9.67198 2.63899C8.77068 3.53217 8.13465 4.65773 7.83454 5.89063C7.53444 7.12353 7.58201 8.4155 7.97198 9.62299C9.55298 15.523 16.784 21.458 19.947 22.306C20.0885 22.3441 20.2375 22.3441 20.379 22.306C23.542 21.458 30.774 15.518 32.354 9.62299H32.356ZM25.826 16.631C24.2143 18.3166 22.292 19.6748 20.165 20.631C18.038 19.6747 16.1158 18.3165 14.504 16.631C12.2528 14.6142 10.5585 12.052 9.58398 9.19099C9.27102 8.26611 9.22403 7.27194 9.44839 6.32167C9.67274 5.37141 10.1594 4.50323 10.853 3.81599C11.8064 2.86776 13.0963 2.33548 14.441 2.33548C15.7856 2.33548 17.0756 2.86776 18.029 3.81599C18.5805 4.37455 19.3273 4.69722 20.112 4.71599C20.5192 4.72312 20.9236 4.64696 21.3004 4.4922C21.6772 4.33744 22.0183 4.10733 22.303 3.81599C23.2564 2.86776 24.5463 2.33548 25.891 2.33548C27.2356 2.33548 28.5256 2.86776 29.479 3.81599C30.1724 4.50333 30.6589 5.37156 30.883 6.32183C31.1072 7.27209 31.0601 8.2662 30.747 9.19099C29.7722 12.0521 28.0775 14.6143 25.826 16.631Z" fill="#1D3A62"/>
<path d="M25.003 6.24502C24.4772 6.24977 23.9747 6.46309 23.6061 6.83811C23.2374 7.21313 23.0328 7.71917 23.037 8.24502V10.007C23.0461 10.5471 22.8407 11.0687 22.4658 11.4575C22.0908 11.8463 21.577 12.0705 21.037 12.081H20.997V7.91102H21.214C21.4351 7.91102 21.6471 7.8232 21.8034 7.66689C21.9597 7.51058 22.0475 7.29857 22.0475 7.07751C22.0475 6.85646 21.9597 6.64446 21.8034 6.48814C21.6471 6.33183 21.4351 6.24402 21.214 6.24402H19.114C18.893 6.24402 18.681 6.33183 18.5246 6.48814C18.3683 6.64446 18.2805 6.85646 18.2805 7.07751C18.2805 7.29857 18.3683 7.51058 18.5246 7.66689C18.681 7.8232 18.893 7.91102 19.114 7.91102H19.331V12.077H19.291C18.751 12.0665 18.2372 11.8423 17.8623 11.4535C17.4874 11.0647 17.2819 10.5431 17.291 10.003V8.24502C17.2933 7.9846 17.2442 7.7263 17.1466 7.48485C17.049 7.2434 16.9048 7.02354 16.7222 6.83782C16.5397 6.6521 16.3223 6.50416 16.0826 6.40245C15.8429 6.30074 15.5854 6.24724 15.325 6.24502C15.104 6.24502 14.892 6.33283 14.7356 6.48914C14.5793 6.64545 14.4915 6.85746 14.4915 7.07851C14.4915 7.29957 14.5793 7.51158 14.7356 7.66789C14.892 7.8242 15.104 7.91202 15.325 7.91202C15.4081 7.91718 15.486 7.95453 15.542 8.01614C15.598 8.07776 15.6278 8.15879 15.625 8.24202V10.004C15.6162 10.9857 15.9971 11.9309 16.6841 12.6322C17.3712 13.3335 18.3083 13.7337 19.29 13.745H19.33V16.245H19.113C18.892 16.245 18.6799 16.3328 18.5236 16.4891C18.3673 16.6455 18.2795 16.8575 18.2795 17.0785C18.2795 17.2996 18.3673 17.5116 18.5236 17.6679C18.6799 17.8242 18.892 17.912 19.113 17.912H21.213C21.4341 17.912 21.6461 17.8242 21.8024 17.6679C21.9587 17.5116 22.0465 17.2996 22.0465 17.0785C22.0465 16.8575 21.9587 16.6455 21.8024 16.4891C21.6461 16.3328 21.4341 16.245 21.213 16.245H20.996V13.745H21.036C22.0177 13.7337 22.9548 13.3335 23.6419 12.6322C24.3289 11.9309 24.7098 10.9857 24.701 10.004V8.24502C24.6983 8.16179 24.728 8.08077 24.7841 8.01915C24.8401 7.95753 24.9179 7.92017 25.001 7.91502C25.2221 7.91502 25.4341 7.8272 25.5904 7.67089C25.7467 7.51458 25.8345 7.30258 25.8345 7.08152C25.8345 6.86046 25.7467 6.64845 25.5904 6.49214C25.4341 6.33583 25.2221 6.24802 25.001 6.24802L25.003 6.24502Z" fill="#1D3A62"/>
<path d="M37.778 9.10502H37.605C36.6996 9.0892 35.8248 9.4327 35.172 10.0603C34.5192 10.688 34.1417 11.5487 34.122 12.454L33.963 20.587C33.4365 20.6221 32.93 20.8016 32.499 21.106C31.5068 21.8479 30.5855 22.6801 29.747 23.592C29.212 24.126 28.606 24.732 27.912 25.399C24.059 29.099 23.721 31.95 23.644 35.869C23.644 35.874 23.644 35.88 23.644 35.885V42.505C23.644 42.7259 23.7318 42.9378 23.888 43.094C24.0442 43.2502 24.2561 43.338 24.477 43.338H32.266C32.4869 43.338 32.6988 43.2502 32.855 43.094C33.0112 42.9378 33.099 42.7259 33.099 42.505V35.978L37.636 30.834C38.804 29.5052 39.4116 27.7754 39.331 26.008V10.708C39.3312 10.2919 39.1692 9.892 38.8795 9.59328C38.5897 9.29457 38.195 9.1205 37.779 9.10801L37.778 9.10502ZM37.663 26.005C37.741 27.3642 37.2829 28.6999 36.387 29.725L31.639 35.108C31.5049 35.2603 31.431 35.4562 31.431 35.659V41.668H25.309V35.89C25.38 32.3 25.601 29.928 29.066 26.597C29.766 25.919 30.383 25.308 30.923 24.768C31.6839 23.942 32.5146 23.1832 33.406 22.5C33.959 22.14 34.152 22.242 34.332 22.35L34.353 22.363C34.397 22.391 34.489 22.463 34.519 22.725C34.64 23.811 33.51 26.143 31.407 28.164C31.2538 28.3185 31.1672 28.5268 31.1656 28.7443C31.164 28.9619 31.2476 29.1714 31.3984 29.3281C31.5493 29.4848 31.7555 29.5763 31.9729 29.583C32.1903 29.5898 32.4017 29.5112 32.562 29.364C34.888 27.127 36.374 24.32 36.175 22.538C36.1364 22.061 35.9397 21.6105 35.616 21.258L35.788 12.482C35.7993 12.0187 35.993 11.5786 36.3271 11.2575C36.6612 10.9363 37.1086 10.76 37.572 10.767H37.664V26.002L37.663 26.005Z" fill="#1D3A62"/>
<path d="M14.955 28.43C14.8382 28.2423 14.6516 28.1088 14.4363 28.0587C14.221 28.0087 13.9946 28.0462 13.807 28.163C13.6194 28.2798 13.4858 28.4664 13.4357 28.6817C13.3857 28.897 13.4232 29.1233 13.54 29.311C14.833 31.389 14.97 33.349 15.02 35.889V41.667H8.89799V35.658C8.89807 35.4551 8.82411 35.2592 8.68999 35.107L3.93999 29.722C3.0459 28.6971 2.58891 27.3628 2.66699 26.005V10.77H2.75799C3.22137 10.763 3.66877 10.9393 4.00286 11.2604C4.33695 11.5816 4.53071 12.0217 4.54199 12.485L4.71399 21.261C4.39033 21.6135 4.1936 22.064 4.15499 22.541C3.95499 24.323 5.44099 27.13 7.76799 29.367C7.92823 29.5141 8.13966 29.5927 8.35709 29.586C8.57453 29.5793 8.78071 29.4878 8.93156 29.3311C9.08242 29.1743 9.16598 28.9648 9.16437 28.7473C9.16277 28.5298 9.07614 28.3215 8.92299 28.167C6.82299 26.145 5.68999 23.814 5.81099 22.728C5.83999 22.467 5.93199 22.394 5.97699 22.366L5.99499 22.355C6.41799 22.106 6.87999 22.281 8.58999 23.955C8.66806 24.0317 8.76048 24.0922 8.86195 24.1332C8.96343 24.1742 9.07198 24.1948 9.18142 24.1938C9.29085 24.1928 9.39902 24.1703 9.49975 24.1275C9.60048 24.0848 9.6918 24.0226 9.76849 23.9445C9.84518 23.8664 9.90575 23.774 9.94673 23.6725C9.9877 23.5711 10.0083 23.4625 10.0073 23.3531C10.0063 23.2436 9.98382 23.1355 9.94104 23.0347C9.89826 22.934 9.83606 22.8427 9.75799 22.766C8.68099 21.708 7.57599 20.622 6.36799 20.582L6.20899 12.45C6.1893 11.5446 5.81175 10.684 5.15899 10.0563C4.50623 9.42867 3.63142 9.08517 2.72599 9.10099H2.55299C2.13702 9.11347 1.74228 9.28754 1.45253 9.58625C1.16277 9.88497 1.00081 10.2848 1.00099 10.701V26.001C0.920153 27.767 1.52659 29.4956 2.69299 30.824L7.23199 35.97V42.497C7.23199 42.7179 7.31976 42.9298 7.47597 43.086C7.63219 43.2422 7.84407 43.33 8.06499 43.33H15.854C16.0749 43.33 16.2868 43.2422 16.443 43.086C16.5992 42.9298 16.687 42.7179 16.687 42.497V35.877C16.687 35.872 16.687 35.866 16.687 35.861C16.633 33.143 16.472 30.867 14.955 28.43Z" fill="#1D3A62"/>
<path d="M12.675 25.995C12.675 25.774 12.5872 25.5622 12.431 25.4059C12.2748 25.2497 12.0629 25.162 11.842 25.162C11.6773 25.1622 11.5164 25.2112 11.3795 25.3029C11.2426 25.3945 11.136 25.5247 11.0731 25.6769C11.0102 25.8291 10.9939 25.9966 11.0261 26.1581C11.0584 26.3196 11.1378 26.468 11.2543 26.5844C11.3709 26.7007 11.5193 26.78 11.6809 26.812C11.8424 26.8441 12.0099 26.8275 12.162 26.7645C12.3142 26.7014 12.4442 26.5946 12.5357 26.4577C12.6272 26.3207 12.676 26.1597 12.676 25.995H12.675Z" fill="#1D3A62"/>
</svg>
