<svg width="35" height="47" viewBox="0 0 35 47" fill="none" xmlns="http://www.w3.org/2000/svg">
<path d="M12.384 0.679962C13.124 0.794962 13.87 0.880018 14.601 1.03702C14.9855 1.13303 15.3554 1.28001 15.701 1.47403C16.0588 1.6354 16.3587 1.90238 16.5604 2.23917C16.762 2.57595 16.8558 2.96632 16.829 3.35794C16.8845 5.77623 16.7887 8.19564 16.5421 10.602C16.5141 10.802 16.492 11.0079 16.459 11.2849C16.81 10.9849 17.105 10.727 17.409 10.479C20.0822 8.16332 23.5468 6.96986 27.079 7.14798C29.4272 7.28867 31.7141 7.95333 33.772 9.09305C34.0625 9.26025 34.3063 9.49768 34.481 9.78372C34.6558 10.0698 34.7559 10.3952 34.772 10.73C34.8612 11.435 34.7917 12.1511 34.5687 12.8258C34.3456 13.5006 33.9747 14.117 33.483 14.63C33.1891 14.9955 32.789 15.2604 32.3378 15.3883C31.8867 15.5163 31.407 15.5008 30.965 15.344C29.6253 14.8788 28.2152 14.649 26.7971 14.6649C26.6571 14.6709 26.517 14.683 26.377 14.692L26.296 14.8109C26.3558 14.8182 26.4143 14.8348 26.4691 14.86C28.1257 16.0358 29.416 17.6561 30.191 19.534C31.5759 22.6448 32.1992 26.041 32.009 29.4409C31.8874 33.1478 31.0848 36.8006 29.641 40.2169C29.2328 41.1952 28.709 42.1211 28.081 42.975C27.2638 44.0798 26.1608 44.9408 24.8908 45.4655C23.6208 45.9902 22.2317 46.1588 20.873 45.953C17.8416 45.5586 14.9131 44.5903 12.244 43.1C8.59194 41.2768 5.57311 38.3967 3.58038 34.8343C1.58766 31.2719 0.713262 27.1922 1.07098 23.126C1.22867 21.4488 1.69556 19.8153 2.44799 18.308C2.57068 18.0455 2.63318 17.7588 2.63098 17.469C2.57245 16.1206 2.85455 14.779 3.45123 13.5684C4.04791 12.3577 4.93992 11.317 6.04498 10.542C6.4857 10.2169 6.85123 9.80072 7.11663 9.32169C7.38204 8.84265 7.54109 8.31206 7.583 7.76602C7.72876 6.41989 7.78652 5.0656 7.75598 3.71194C7.73098 2.41194 7.94903 1.78604 9.53003 1.18704C10.1618 0.9928 10.8087 0.851646 11.464 0.765045C11.708 0.717045 11.959 0.705986 12.206 0.678986L12.384 0.679962ZM16.092 13.963C17.792 15.1161 19.1814 16.6707 20.137 18.489C20.6346 19.4573 21.0731 20.4547 21.45 21.476C21.706 22.133 21.195 22.741 20.592 22.521C20.3234 22.3887 20.1169 22.157 20.016 21.875C19.4637 20.2691 18.653 18.7639 17.616 17.419C16.741 16.16 15.503 15.1976 14.0672 14.6598C12.6314 14.1221 11.0658 14.0345 9.57898 14.409C8.13273 14.7086 6.79264 15.3887 5.69696 16.3791C4.60127 17.3694 3.78971 18.6343 3.34601 20.043C2.24414 23.1992 2.17028 26.6233 3.13501 29.824C3.32201 30.541 3.59302 31.236 3.84802 32.01C4.18402 31.433 4.43598 30.936 4.74798 30.476C5.59914 29.0461 6.93666 27.9705 8.51587 27.4458C10.0951 26.9212 11.8104 26.9827 13.348 27.619C15.758 28.5346 18.2394 29.2496 20.767 29.757C22.3076 30.1073 23.9128 30.0505 25.4247 29.5922C26.9367 29.1339 28.3032 28.2897 29.3899 27.143C30.41 26.085 30.422 26.097 30.19 24.643C30.183 24.599 30.182 24.555 30.174 24.511C29.7696 21.9827 28.7511 19.5922 27.2079 17.549C26.6247 16.7612 25.8447 16.1405 24.946 15.7491C24.6206 15.5394 24.2295 15.4567 23.8471 15.5166C23.4647 15.5766 23.1177 15.7749 22.872 16.074C22.8086 16.1474 22.7307 16.2068 22.6431 16.2484C22.5556 16.2901 22.4603 16.3132 22.3633 16.3161C22.2664 16.319 22.1699 16.3017 22.08 16.2654C21.9901 16.2291 21.9087 16.1745 21.841 16.105C21.764 16.0401 21.7017 15.9595 21.6583 15.8687C21.6148 15.7778 21.5912 15.6788 21.589 15.5782C21.5869 15.4775 21.6062 15.3776 21.6457 15.2849C21.6852 15.1923 21.7439 15.1092 21.8181 15.041C22.1435 14.7012 22.5099 14.4032 22.909 14.154C24.5004 13.2841 26.3313 12.9549 28.126 13.216C28.689 13.27 29.249 13.364 29.843 13.444C29.8008 12.7509 29.9018 12.0566 30.1396 11.4042C30.3773 10.7518 30.7468 10.1554 31.225 9.65201C26.437 7.55701 20.375 8.61404 16.092 13.963ZM30.559 28.295C29.596 28.981 28.759 29.687 27.819 30.225C25.4706 31.4563 22.7548 31.7925 20.1771 31.1711C17.6106 30.639 15.0906 29.9033 12.641 28.971C11.5633 28.5411 10.3737 28.4803 9.25781 28.798C8.14193 29.1157 7.16268 29.794 6.47302 30.727C5.99112 31.4469 5.54717 32.1917 5.143 32.958C4.9718 33.2261 4.89081 33.5418 4.91186 33.8592C4.93291 34.1765 5.0549 34.4789 5.26001 34.722C7.39849 38.0943 10.4926 40.7536 14.148 42.361C16.2956 43.4431 18.6122 44.1502 20.998 44.4519C22.2401 44.6436 23.5111 44.4557 24.6446 43.9128C25.778 43.3698 26.721 42.497 27.35 41.409C27.6456 40.9338 27.9069 40.4383 28.132 39.9261C29.2791 37.2567 30.0206 34.4307 30.332 31.542C30.457 30.464 30.487 29.379 30.559 28.295ZM9.33697 4.84695C9.28797 5.73295 9.29402 6.59097 9.18402 7.43497C9.13136 8.32768 8.8795 9.19734 8.4469 9.98001C8.01429 10.7627 7.41193 11.4386 6.68402 11.958C5.50379 12.8075 4.68685 14.0703 4.39599 15.495C5.71572 14.2407 7.34714 13.3624 9.12091 12.9514C10.8947 12.5405 12.7461 12.6118 14.483 13.158C15.1791 10.4415 15.4491 7.63337 15.283 4.83401C13.3657 5.54588 11.2574 5.55043 9.33697 4.84695ZM9.28998 3.04703C10.49 4.21403 14.683 4.01296 15.257 3.00296C14.019 1.96496 10.476 1.979 9.28998 3.048V3.04703ZM33.3021 11.391C33.3101 11.2834 33.304 11.1751 33.284 11.069C33.195 10.833 33.0839 10.604 32.9839 10.369C32.7421 10.4436 32.5144 10.5578 32.31 10.7069C31.9506 11.0573 31.6802 11.4885 31.5212 11.9646C31.3622 12.4407 31.3193 12.948 31.3961 13.444C31.4791 14.016 31.764 14.123 32.196 13.744C32.5305 13.4477 32.8012 13.0863 32.9915 12.6819C33.1818 12.2775 33.2879 11.8387 33.303 11.392L33.3021 11.391Z" fill="#1D3A62"/>
<path d="M4.0471 23.7641C4.15843 21.5261 5.0297 19.3929 6.51707 17.7169C7.18592 17.006 8.02038 16.4718 8.94602 16.162C9.03781 16.1238 9.1364 16.1048 9.23582 16.1058C9.33524 16.1069 9.43347 16.1281 9.52439 16.1683C9.61532 16.2086 9.69707 16.2669 9.76475 16.3397C9.83243 16.4126 9.88461 16.4983 9.91807 16.5919C9.95791 16.6803 9.97893 16.7762 9.97984 16.8732C9.98075 16.9701 9.96149 17.066 9.92332 17.1552C9.88515 17.2443 9.82896 17.3245 9.75816 17.3908C9.68736 17.457 9.60353 17.5078 9.51206 17.5399C7.16706 18.4469 6.22211 20.38 5.73911 22.653C5.6577 23.0563 5.59923 23.4642 5.56407 23.8742C5.50007 24.5332 5.214 24.8741 4.723 24.8461C4.232 24.8181 4.0051 24.4541 4.0471 23.7641Z" fill="#1D3A62"/>
<path d="M13.047 33.1271C13.0552 33.7275 12.8245 34.3065 12.4057 34.7369C12.1984 34.95 11.9511 35.1201 11.6779 35.2377C11.4048 35.3552 11.1112 35.4179 10.8139 35.422C10.2135 35.4302 9.63434 35.1997 9.20395 34.7809C8.77355 34.3621 8.52711 33.7895 8.51889 33.1891C8.51067 32.5886 8.74136 32.0094 9.16012 31.579C9.57889 31.1486 10.1515 30.9021 10.7519 30.8939C11.3524 30.8857 11.9315 31.1165 12.3619 31.5353C12.7923 31.954 13.0387 32.5266 13.047 33.1271ZM10.796 33.902C10.8951 33.9026 10.9933 33.883 11.0846 33.8444C11.1759 33.8057 11.2583 33.749 11.3269 33.6774C11.3954 33.6057 11.4485 33.5208 11.4831 33.4279C11.5177 33.3349 11.533 33.2361 11.5279 33.1371C11.5241 32.9445 11.4456 32.7609 11.3091 32.6251C11.1725 32.4893 10.9886 32.4119 10.796 32.4091C10.6968 32.4081 10.5983 32.4267 10.5063 32.464C10.4143 32.5012 10.3306 32.5562 10.26 32.6259C10.1894 32.6955 10.1333 32.7785 10.0948 32.87C10.0564 32.9615 10.0364 33.0598 10.036 33.1591C10.0361 33.258 10.0559 33.3558 10.0943 33.4469C10.1327 33.538 10.1888 33.6206 10.2595 33.6898C10.3302 33.759 10.4139 33.8133 10.5058 33.8497C10.5978 33.8862 10.696 33.904 10.7949 33.902H10.796Z" fill="#1D3A62"/>
<path d="M26.6391 37.6989C26.6382 38.147 26.5042 38.5848 26.254 38.9565C26.0039 39.3282 25.649 39.617 25.2343 39.7866C24.8195 39.9561 24.3638 39.9987 23.9249 39.9086C23.486 39.8186 23.0838 39.6001 22.7693 39.2809C22.4548 38.9618 22.2423 38.5566 22.1587 38.1164C22.0751 37.6762 22.1242 37.221 22.2998 36.8088C22.4754 36.3966 22.7697 36.0461 23.145 35.8015C23.5204 35.5568 23.96 35.4293 24.408 35.435C24.7032 35.4368 24.9952 35.4969 25.2672 35.6118C25.5392 35.7266 25.7859 35.8939 25.9932 36.1042C26.2004 36.3145 26.364 36.5634 26.4749 36.8371C26.5857 37.1108 26.6416 37.4037 26.6391 37.6989ZM25.129 37.7099C25.1291 37.5155 25.0537 37.3287 24.9187 37.1887C24.7838 37.0486 24.5999 36.9663 24.4055 36.9592C24.2112 36.952 24.0217 37.0206 23.8768 37.1503C23.732 37.2801 23.6432 37.461 23.629 37.655C23.6217 37.7556 23.6347 37.8566 23.6673 37.9521C23.6998 38.0476 23.7513 38.1357 23.8186 38.2109C23.886 38.286 23.9678 38.3467 24.0592 38.3896C24.1506 38.4324 24.2496 38.4564 24.3505 38.4601C24.4513 38.4638 24.5519 38.4474 24.6461 38.4113C24.7404 38.3753 24.8265 38.3205 24.8992 38.2504C24.9719 38.1804 25.0296 38.0965 25.0691 38.0036C25.1086 37.9107 25.129 37.8108 25.129 37.7099Z" fill="#1D3A62"/>
<path d="M16.816 38.4621C16.816 38.5615 16.7958 38.6598 16.7565 38.7512C16.7173 38.8425 16.6597 38.9247 16.5876 38.9931C16.5154 39.0615 16.4301 39.1145 16.3369 39.1489C16.2436 39.1832 16.1443 39.1984 16.045 39.1931C15.8521 39.1862 15.6692 39.1058 15.5336 38.9684C15.3981 38.831 15.3202 38.647 15.316 38.454C15.3193 38.2535 15.4003 38.062 15.5418 37.9199C15.6834 37.7778 15.8745 37.6962 16.075 37.6921C16.1743 37.6938 16.2722 37.7149 16.3632 37.7546C16.4543 37.7942 16.5366 37.8515 16.6054 37.923C16.6743 37.9946 16.7283 38.0791 16.7645 38.1716C16.8006 38.2641 16.8181 38.3628 16.816 38.4621Z" fill="#1D3A62"/>
<path d="M19.0751 34.6681C18.9742 34.6678 18.8746 34.647 18.7819 34.6073C18.6892 34.5677 18.6053 34.5099 18.5355 34.4372C18.4657 34.3644 18.4112 34.2783 18.3754 34.184C18.3395 34.0898 18.3231 33.9894 18.3269 33.8886C18.3307 33.7878 18.3548 33.6888 18.3977 33.5976C18.4406 33.5063 18.5014 33.4246 18.5765 33.3573C18.6517 33.2901 18.7396 33.2388 18.8351 33.2062C18.9305 33.1737 19.0315 33.1608 19.1321 33.1681C19.3243 33.1775 19.5053 33.2616 19.6361 33.4028C19.7669 33.5439 19.8372 33.7306 19.832 33.923C19.8323 34.022 19.8129 34.1201 19.7748 34.2114C19.7367 34.3027 19.6807 34.3854 19.6102 34.4548C19.5397 34.5242 19.456 34.5788 19.3641 34.6154C19.2722 34.652 19.174 34.67 19.0751 34.6681Z" fill="#1D3A62"/>
<path d="M27.404 33.166C27.5966 33.1733 27.7789 33.2545 27.9133 33.3925C28.0478 33.5305 28.124 33.7148 28.1263 33.9074C28.1286 34.1 28.0569 34.2862 27.9258 34.4274C27.7947 34.5686 27.6143 34.654 27.422 34.666C27.3204 34.6723 27.2187 34.658 27.1228 34.6237C27.0269 34.5895 26.939 34.5362 26.8644 34.467C26.7898 34.3977 26.7301 34.3139 26.6888 34.2209C26.6476 34.1278 26.6256 34.0273 26.6244 33.9255C26.6232 33.8237 26.6426 33.7229 26.6816 33.6288C26.7206 33.5348 26.7784 33.4496 26.8513 33.3786C26.9242 33.3076 27.0108 33.252 27.1058 33.2155C27.2008 33.179 27.3023 33.1621 27.404 33.166Z" fill="#1D3A62"/>
<path d="M15.313 34.6739C15.4148 34.6697 15.5163 34.6862 15.6115 34.7225C15.7066 34.7587 15.7935 34.814 15.8666 34.8848C15.9398 34.9557 15.9977 35.0406 16.037 35.1346C16.0763 35.2285 16.0961 35.3294 16.0951 35.4312C16.0942 35.533 16.0726 35.6337 16.0315 35.7269C15.9905 35.8201 15.9309 35.904 15.8565 35.9735C15.782 36.0429 15.6941 36.0965 15.5983 36.1309C15.5025 36.1654 15.4008 36.18 15.2991 36.1739C15.1069 36.1623 14.9263 36.0774 14.795 35.9366C14.6636 35.7958 14.5914 35.6099 14.5932 35.4173C14.595 35.2247 14.6707 35.0403 14.8047 34.9019C14.9387 34.7636 15.1206 34.6819 15.313 34.6739Z" fill="#1D3A62"/>
<path d="M22.85 42.211C22.7506 42.2104 22.6523 42.1898 22.5611 42.1502C22.4699 42.1105 22.3878 42.0526 22.3196 41.9802C22.2515 41.9079 22.1986 41.8224 22.1645 41.729C22.1303 41.6356 22.1156 41.5363 22.121 41.437C22.1347 41.2441 22.2224 41.0638 22.3657 40.9339C22.5089 40.8039 22.6968 40.7344 22.8902 40.7395C23.0836 40.7447 23.2675 40.8243 23.4036 40.9617C23.5398 41.0991 23.6176 41.2837 23.621 41.4771C23.6203 41.5764 23.5996 41.6745 23.5601 41.7656C23.5206 41.8568 23.4632 41.9391 23.3913 42.0076C23.3193 42.0761 23.2343 42.1294 23.1413 42.1643C23.0483 42.1993 22.9493 42.2151 22.85 42.211Z" fill="#1D3A62"/>
<path d="M19.837 36.928C19.8401 37.0273 19.823 37.1263 19.7867 37.2188C19.7504 37.3113 19.6956 37.3952 19.6257 37.4658C19.5558 37.5365 19.4723 37.5921 19.3802 37.6294C19.2881 37.6667 19.1894 37.685 19.09 37.6829C18.8897 37.6802 18.6984 37.5989 18.5577 37.4563C18.4169 37.3137 18.3379 37.1213 18.338 36.9209C18.3467 36.7281 18.4271 36.5454 18.5634 36.4087C18.6997 36.272 18.8822 36.1912 19.075 36.1819C19.1743 36.1798 19.2731 36.1976 19.3654 36.2341C19.4578 36.2707 19.5419 36.3253 19.6129 36.3948C19.6838 36.4643 19.7403 36.5471 19.7787 36.6387C19.8172 36.7303 19.837 36.8287 19.837 36.928Z" fill="#1D3A62"/>
<path d="M19.107 39.9709C19.2063 39.9701 19.3048 39.9897 19.3962 40.0285C19.4876 40.0673 19.5701 40.1245 19.6385 40.1965C19.7069 40.2685 19.7597 40.3539 19.7936 40.4472C19.8276 40.5406 19.842 40.6399 19.836 40.739C19.8306 40.9318 19.7514 41.1151 19.6146 41.251C19.4777 41.3869 19.2938 41.4649 19.101 41.469C18.9006 41.4654 18.7094 41.3846 18.5672 41.2434C18.425 41.1021 18.3428 40.9113 18.338 40.7109C18.3395 40.6117 18.3608 40.5138 18.4003 40.4228C18.4399 40.3319 18.4969 40.2497 18.5684 40.1809C18.6399 40.1121 18.7243 40.0582 18.8167 40.0222C18.9091 39.9862 19.0078 39.9687 19.107 39.9709Z" fill="#1D3A62"/>
<path d="M22.8521 33.1672C23.0524 33.164 23.2458 33.24 23.3902 33.3789C23.5346 33.5177 23.6184 33.7079 23.6231 33.9081C23.6191 34.1014 23.5407 34.2856 23.4043 34.4226C23.2679 34.5595 23.0839 34.6385 22.8907 34.6433C22.6974 34.648 22.5099 34.5782 22.3669 34.4482C22.2239 34.3181 22.1366 34.1378 22.1231 33.945C22.1194 33.8459 22.1353 33.7471 22.17 33.6542C22.2047 33.5614 22.2574 33.4763 22.3252 33.404C22.393 33.3316 22.4744 33.2735 22.5649 33.2329C22.6553 33.1922 22.753 33.1699 22.8521 33.1672Z" fill="#1D3A62"/>
<path d="M12.278 36.9509C12.377 36.9467 12.4759 36.9626 12.5686 36.9978C12.6613 37.0329 12.7459 37.0867 12.8173 37.1555C12.8886 37.2243 12.9452 37.3068 12.9837 37.3982C13.0221 37.4895 13.0417 37.5879 13.041 37.687C13.0401 37.8812 12.9636 38.0674 12.8275 38.206C12.6915 38.3447 12.5067 38.4246 12.3125 38.4292C12.1183 38.4337 11.9301 38.3625 11.7877 38.2305C11.6453 38.0984 11.5601 37.9159 11.5501 37.7219C11.5449 37.6229 11.5599 37.5239 11.5941 37.4309C11.6283 37.3379 11.681 37.2527 11.749 37.1807C11.8171 37.1086 11.8991 37.0512 11.99 37.0117C12.0809 36.9722 12.1788 36.9515 12.278 36.9509Z" fill="#1D3A62"/>
</svg>
