<svg width="31" height="42" viewBox="0 0 31 42" fill="none" xmlns="http://www.w3.org/2000/svg">
<path d="M10.375 0.000904239C11.049 0.107387 11.7284 0.186144 12.3942 0.331517C12.7444 0.420419 13.0813 0.556513 13.3961 0.736164C13.722 0.885582 13.9951 1.13279 14.1788 1.44464C14.3624 1.75648 14.4478 2.11793 14.4235 2.48055C14.474 4.71975 14.3867 6.95998 14.1621 9.18809C14.1366 9.37328 14.1165 9.564 14.0865 9.82049C14.4062 9.54271 14.6748 9.3039 14.9517 9.07427C17.3864 6.93006 20.5419 5.82498 23.759 5.98991C25.8977 6.12018 27.9806 6.73561 29.8549 7.79093C30.1195 7.94575 30.3415 8.16559 30.5006 8.43045C30.6598 8.69531 30.751 8.99665 30.7657 9.30666C30.8469 9.95947 30.7836 10.6225 30.5804 11.2473C30.3773 11.872 30.0395 12.4428 29.5916 12.9178C29.324 13.2562 28.9595 13.5015 28.5486 13.62C28.1377 13.7384 27.7008 13.7241 27.2983 13.579C26.0781 13.1482 24.7938 12.9355 23.5022 12.9502C23.3747 12.9557 23.2471 12.9669 23.1196 12.9753L23.0458 13.0854C23.1003 13.0921 23.1535 13.1075 23.2034 13.1308C24.7123 14.2195 25.8874 15.7198 26.5933 17.4586C27.8547 20.3391 28.4223 23.4838 28.2491 26.6319C28.1384 30.0642 27.4074 33.4465 26.0924 36.6098C25.7206 37.5156 25.2436 38.373 24.6716 39.1636C23.9273 40.1866 22.9227 40.9838 21.766 41.4697C20.6093 41.9555 19.3441 42.1116 18.1066 41.9211C15.3457 41.5559 12.6784 40.6593 10.2475 39.2794C6.92124 37.5912 4.17173 34.9243 2.35679 31.6258C0.541843 28.3272 -0.254542 24.5496 0.0712634 20.7846C0.214887 19.2316 0.640117 17.7191 1.32543 16.3234C1.43716 16.0803 1.49409 15.8149 1.49209 15.5466C1.43878 14.298 1.69571 13.0558 2.23916 11.9348C2.7826 10.8138 3.59504 9.85016 4.60151 9.13259C5.0029 8.83158 5.33583 8.44619 5.57755 8.00263C5.81928 7.55907 5.96414 7.06777 6.00232 6.56218C6.13507 5.31574 6.18767 4.06175 6.15986 2.80834C6.13709 1.60462 6.33568 1.02507 7.77563 0.47043C8.35107 0.290574 8.94023 0.159874 9.53706 0.0796861C9.75929 0.0352409 9.9879 0.0250004 10.2129 0L10.375 0.000904239ZM13.7522 12.3003C15.3005 13.3679 16.5659 14.8074 17.4363 16.4911C17.8895 17.3876 18.2889 18.3112 18.6322 19.2568C18.8653 19.8651 18.3999 20.4282 17.8507 20.2244C17.6061 20.1019 17.418 19.8874 17.3261 19.6263C16.8231 18.1392 16.0847 16.7456 15.1402 15.5002C14.3433 14.3345 13.2158 13.4433 11.908 12.9454C10.6003 12.4475 9.17437 12.3665 7.82022 12.7132C6.50299 12.9906 5.28247 13.6203 4.28453 14.5373C3.2866 15.4544 2.54744 16.6255 2.14332 17.9299C1.13976 20.8524 1.07248 24.0229 1.95115 26.9866C2.12146 27.6505 2.3683 28.294 2.60055 29.0107C2.90657 28.4764 3.13606 28.0162 3.42022 27.5903C4.19544 26.2662 5.41363 25.2703 6.85195 24.7845C8.29027 24.2987 9.85259 24.3557 11.253 24.9449C13.448 25.7926 15.708 26.4547 18.0101 26.9245C19.4132 27.2489 20.8752 27.1963 22.2523 26.7719C23.6294 26.3475 24.874 25.5659 25.8638 24.5041C26.7928 23.5244 26.8037 23.5356 26.5924 22.1892C26.586 22.1485 26.5851 22.1078 26.5779 22.0671C26.2095 19.726 25.2819 17.5125 23.8764 15.6206C23.3452 14.8911 22.6348 14.3165 21.8163 13.954C21.5199 13.7599 21.1637 13.6833 20.8154 13.7388C20.4671 13.7943 20.1511 13.9779 19.9273 14.2549C19.8696 14.3228 19.7986 14.3778 19.7188 14.4164C19.6391 14.455 19.5523 14.4763 19.464 14.479C19.3757 14.4817 19.2879 14.4658 19.206 14.4321C19.1241 14.3985 19.0499 14.3479 18.9883 14.2836C18.9182 14.2235 18.8614 14.1489 18.8218 14.0648C18.7823 13.9807 18.7608 13.889 18.7588 13.7958C18.7568 13.7025 18.7744 13.61 18.8104 13.5243C18.8463 13.4385 18.8999 13.3615 18.9674 13.2984C19.2638 12.9838 19.5975 12.7078 19.961 12.477C21.4104 11.6716 23.078 11.3668 24.7126 11.6085C25.2254 11.6585 25.7353 11.7456 26.2763 11.8197C26.238 11.1779 26.33 10.535 26.5465 9.93092C26.7631 9.32687 27.0996 8.77463 27.5351 8.30849C23.1743 6.36864 17.6531 7.3474 13.7522 12.3003ZM26.9285 25.5708C26.0514 26.206 25.2891 26.8597 24.433 27.3579C22.2941 28.498 19.8206 28.8093 17.4728 28.2339C15.1353 27.7412 12.8401 27.06 10.6091 26.1967C9.62754 25.7987 8.54403 25.7424 7.5277 26.0366C6.51138 26.3307 5.61949 26.9588 4.99136 27.8227C4.55246 28.4893 4.14811 29.1789 3.78 29.8885C3.62407 30.1367 3.55031 30.429 3.56948 30.7229C3.58865 31.0168 3.69976 31.2967 3.88656 31.5218C5.83426 34.6444 8.65232 37.1068 11.9816 38.5951C13.9376 39.5971 16.0475 40.2518 18.2205 40.5312C19.3517 40.7087 20.5094 40.5347 21.5417 40.0319C22.5741 39.5291 23.4329 38.721 24.0058 37.7136C24.275 37.2736 24.513 36.8148 24.718 36.3405C25.7628 33.8688 26.4382 31.2521 26.7217 28.5774C26.8356 27.5792 26.8629 26.5745 26.9285 25.5708ZM7.5998 3.85929C7.55517 4.67968 7.56068 5.47415 7.46049 6.25564C7.41254 7.08224 7.18314 7.8875 6.78914 8.6122C6.39513 9.3369 5.8465 9.96273 5.18353 10.4437C4.1086 11.2302 3.36455 12.3996 3.09963 13.7188C4.30162 12.5573 5.7875 11.7441 7.40302 11.3636C9.01853 10.9831 10.7048 11.0491 12.2867 11.5548C12.9207 9.03951 13.1666 6.43935 13.0154 3.84731C11.2691 4.50646 9.34886 4.51067 7.5998 3.85929ZM7.557 2.19267C8.64994 3.27324 12.4689 3.08706 12.9917 2.15186C11.8641 1.19074 8.63719 1.20374 7.557 2.19357V2.19267ZM29.4268 9.91871C29.4341 9.81903 29.4286 9.71878 29.4104 9.62054C29.3293 9.40202 29.2282 9.19002 29.1371 8.97243C28.9169 9.0415 28.7095 9.14716 28.5233 9.28529C28.196 9.60974 27.9496 10.009 27.8048 10.4498C27.66 10.8907 27.621 11.3604 27.6909 11.8197C27.7665 12.3493 28.026 12.4484 28.4194 12.0975C28.7241 11.8231 28.9707 11.4884 29.144 11.114C29.3173 10.7396 29.4139 10.3332 29.4277 9.91962L29.4268 9.91871Z" fill="#0062FF"/>
</svg>
