<svg width="142" height="50" viewBox="0 0 142 50" fill="none" xmlns="http://www.w3.org/2000/svg">
    <path d="M66.0412 37.0692H62.1971L62.2318 24.69L62.3354 21.8969L60.4995 24.0004L54.1624 30.69L47.3742 24.4487L45.4004 22.1038L45.4695 25.3794V37.0692H41.5215V12.3105L54.1624 25.0693L66.0412 12.3105V37.0692Z" fill="#ED72A9"/>
    <path d="M86.9588 31.311C85.2964 35.3454 81.9023 37.3454 78.3705 37.3454C73.4523 37.3454 69.5046 33.311 69.5046 28.4491C69.5046 23.5524 73.4523 19.5181 78.3705 19.5181C83.2535 19.5181 87.2017 23.5524 87.2017 28.4491C87.2017 28.7585 87.2017 29.1367 87.167 29.4145H72.8982C73.347 32.0695 75.5652 34.1386 78.3705 34.1386C80.5176 34.1386 82.3876 33.104 83.2882 31.311H86.9588ZM73.0023 26.8283H83.7735C83.6699 26.5533 83.497 26.2782 83.3935 26.0007C82.4929 24.1043 80.6229 22.6905 78.3723 22.6905C76.017 22.6905 74.1123 24.173 73.2464 26.173C73.1405 26.4144 73.0364 26.6214 73.0023 26.8283Z" fill="#ED72A9"/>
    <path d="M97.6606 20.0349C99.5306 20.0349 101.297 20.6194 102.682 21.5866C102.993 21.8272 103.306 22.1367 103.618 22.3798V12.9316H107.117V36.9645H103.619V34.9319C103.309 35.2361 102.972 35.513 102.614 35.7594C101.156 36.7528 99.4288 37.2819 97.6618 37.2767C92.9171 37.2767 89.0388 33.4146 89.0388 28.6214C89.0371 23.8627 92.9159 20.0349 97.6606 20.0349ZM97.6606 34.1727C100.743 34.1727 103.618 31.7244 103.618 28.6211C103.618 25.5866 100.743 23.1382 97.6606 23.1382C94.5776 23.1382 92.2576 25.5866 92.2576 28.6211C92.2576 31.7244 94.5782 34.1727 97.6606 34.1727Z" fill="#ED72A9"/>
    <path d="M136.172 25.0348C136.172 32.0349 131.219 37.6209 123.914 37.6209C117.022 37.6209 111.411 32.0349 111.411 25.0348C111.411 18.1041 117.022 12.3799 123.914 12.3799C129.212 12.3799 132.052 14.5868 134.303 16.7935L131.289 19.1383C129.765 17.7245 127.479 16.1385 123.912 16.1385C119.168 16.1385 115.358 20.1041 115.358 25.0348C115.358 30.0006 119.168 34.0005 123.912 34.0005C127.653 34.0005 130.908 31.7592 131.947 28.0006H125.886V24.6212H136.172V25.0348Z" fill="#ED72A9"/>
    <path d="M34.3886 18.9312C34.1969 21.9192 33.0613 24.7704 31.1442 27.0772C29.227 29.3839 26.6264 31.0281 23.7142 31.7745C23.528 31.8234 23.3635 31.9325 23.2464 32.0845C23.1293 32.2366 23.0662 32.4231 23.067 32.6148V35.2488C23.0669 35.3624 23.0893 35.4749 23.1328 35.5799C23.1764 35.6849 23.2403 35.7803 23.3209 35.8608C23.4016 35.9412 23.4973 36.005 23.6027 36.0485C23.7081 36.092 23.821 36.1145 23.9352 36.1145H26.4135C26.6439 36.1144 26.8649 36.2054 27.0279 36.3675C27.191 36.5296 27.2828 36.7495 27.283 36.9789V41.0617C27.2828 41.2911 27.191 41.511 27.0279 41.6731C26.8649 41.8352 26.6439 41.9262 26.4135 41.9261H23.9355C23.8215 41.926 23.7085 41.9483 23.603 41.9917C23.4976 42.0352 23.4019 42.0989 23.3212 42.1792C23.2406 42.2594 23.1766 42.3548 23.133 42.4598C23.0893 42.5647 23.0669 42.6772 23.067 42.7908V45.2594C23.0666 45.4886 22.9749 45.7082 22.8122 45.8702C22.6494 46.0322 22.4288 46.1234 22.1986 46.1238H18.0986C17.9846 46.1238 17.8716 46.1016 17.7661 46.0582C17.6607 46.0148 17.5649 45.9511 17.4841 45.8709C17.4033 45.7906 17.3393 45.6953 17.2955 45.5904C17.2518 45.4855 17.2292 45.373 17.2292 45.2594V42.7908C17.2292 42.6772 17.2068 42.5648 17.1632 42.4599C17.1196 42.355 17.0556 42.2597 16.975 42.1793C16.8944 42.0991 16.7987 42.0353 16.6933 41.9919C16.588 41.9484 16.475 41.9261 16.361 41.9261H13.8816C13.7676 41.9262 13.6546 41.9039 13.5491 41.8605C13.4437 41.8171 13.3479 41.7534 13.2671 41.6732C13.1863 41.5929 13.1223 41.4976 13.0786 41.3927C13.0348 41.2878 13.0122 41.1753 13.0122 41.0617V36.9789C13.0122 36.8653 13.0348 36.7528 13.0786 36.6479C13.1223 36.543 13.1863 36.4477 13.2671 36.3674C13.3479 36.2872 13.4437 36.2235 13.5491 36.1801C13.6546 36.1367 13.7676 36.1144 13.8816 36.1145H16.361C16.4751 36.1144 16.588 36.092 16.6935 36.0484C16.7988 36.0048 16.8946 35.941 16.9752 35.8607C17.0558 35.7803 17.1197 35.6849 17.1633 35.5799C17.2069 35.4749 17.2292 35.3624 17.2292 35.2488V32.6114C17.2298 32.4484 17.184 32.2886 17.0969 32.1506C17.0098 32.0126 16.8852 31.9021 16.7374 31.8319C16.6888 31.8087 16.638 31.7902 16.5858 31.7769C9.37911 29.932 4.37339 22.6234 6.28987 14.5492C7.51646 9.383 11.6278 5.34795 16.8286 4.18069C19.6426 3.54979 22.3602 3.74748 24.7833 4.57471C26.5438 5.17731 28.1688 6.11719 29.5666 7.3414C29.6555 7.41966 29.7273 7.5152 29.7776 7.62213C29.8279 7.72912 29.8557 7.84516 29.8592 7.96326C29.8627 8.0813 29.8418 8.1988 29.7979 8.30856C29.754 8.41825 29.6879 8.51784 29.6039 8.60115L26.3645 11.8275C26.214 11.9792 26.0123 12.0698 25.7986 12.0818C25.5848 12.0938 25.3742 12.0262 25.2076 11.8922C24.8732 11.618 24.5169 11.3714 24.1423 11.1547C22.9438 10.4611 21.5831 10.0935 20.1968 10.0889C20.1812 10.0889 20.1643 10.0889 20.1488 10.0889C14.969 10.0889 10.9437 15.0144 12.538 20.4154C13.0746 22.2283 14.2658 23.7794 15.8824 24.7699C16.4649 25.129 17.0934 25.4081 17.7509 25.5995C18.5944 25.8477 19.4715 25.9637 20.3508 25.9433C22.0397 25.9034 23.6715 25.327 25.008 24.2982C25.0139 24.2934 25.0202 24.2899 25.026 24.2851C25.6707 23.7883 25.3064 22.7561 24.4897 22.7561H23.065C22.8348 22.7561 22.6139 22.665 22.4511 22.5029C22.2883 22.3409 22.1967 22.1211 22.1965 21.8918V18.8796C22.197 18.6506 22.2886 18.431 22.4515 18.2691C22.6143 18.1073 22.8349 18.0164 23.065 18.0163H33.5205C33.6389 18.0161 33.756 18.04 33.8648 18.0866C33.9736 18.1331 34.0716 18.2013 34.153 18.2871C34.2343 18.3727 34.2971 18.4741 34.3376 18.5849C34.3782 18.6956 34.3955 18.8135 34.3886 18.9312Z" fill="#E72887"/>
    <path d="M34.3886 18.931C34.197 21.9191 33.0614 24.7703 31.1442 27.077C29.227 29.3837 26.6265 31.0279 23.7142 31.7743C23.5282 31.8233 23.3636 31.9323 23.2465 32.0844C23.1293 32.2365 23.0663 32.423 23.0671 32.6146V35.2487C23.067 35.3622 23.0893 35.4748 23.1329 35.5798C23.1765 35.6848 23.2404 35.7802 23.321 35.8606C23.4016 35.941 23.4974 36.0048 23.6028 36.0484C23.7082 36.0919 23.8212 36.1143 23.9353 36.1144H26.4136C26.644 36.1143 26.865 36.2053 27.0281 36.3673C27.1911 36.5294 27.2828 36.7494 27.2831 36.9787V41.0616C27.2828 41.291 27.1911 41.5109 27.0281 41.673C26.865 41.835 26.644 41.926 26.4136 41.9259H23.9356C23.8215 41.9259 23.7086 41.9481 23.6032 41.9916C23.4978 42.035 23.402 42.0987 23.3213 42.179C23.2406 42.2593 23.1767 42.3547 23.133 42.4596C23.0895 42.5646 23.0671 42.677 23.0671 42.7907V43.6158C20.4298 40.7035 18.4404 37.2691 17.2292 33.5378V32.6095C17.2299 32.4465 17.1841 32.2867 17.097 32.1487C17.0099 32.0107 16.8852 31.9002 16.7375 31.83C16.167 29.5859 15.8793 27.2797 15.8811 24.9647C15.8811 24.8977 15.8811 24.832 15.8811 24.7649C16.4636 25.124 17.0921 25.4031 17.7496 25.5945C18.5931 25.8427 19.4702 25.9587 20.3495 25.9384C22.0384 25.8985 23.6702 25.322 25.0068 24.2932C25.0126 24.2884 25.0189 24.285 25.0247 24.2802C25.6694 23.7833 25.3051 22.7512 24.4885 22.7512H23.0651C22.8348 22.7511 22.6141 22.66 22.4512 22.498C22.2883 22.3359 22.1968 22.1161 22.1966 21.8869V18.8795C22.1971 18.6504 22.2888 18.4309 22.4515 18.269C22.6143 18.1072 22.835 18.0162 23.0651 18.0161H33.5205C33.6389 18.0159 33.7561 18.0399 33.8649 18.0864C33.9737 18.133 34.0718 18.2012 34.153 18.2869C34.2343 18.3726 34.2972 18.4739 34.3377 18.5847C34.3782 18.6955 34.3956 18.8134 34.3886 18.931Z" fill="#ED72A9"/>
</svg>
