<svg width="20" height="20" viewBox="0 0 20 20" fill="none" xmlns="http://www.w3.org/2000/svg">
<g clip-path="url(#clip0_336_2313)">
<path d="M19.1184 10.4429C19.1225 10.4389 19.1225 10.4389 19.1266 10.4348C19.1388 10.4185 19.151 10.4062 19.1592 10.3899C19.1633 10.3858 19.1633 10.3817 19.1674 10.3776C19.1755 10.3613 19.1878 10.345 19.196 10.3286C19.196 10.3246 19.2 10.3205 19.2 10.3205C19.2082 10.3041 19.2164 10.2878 19.2245 10.2674C19.2245 10.2633 19.2245 10.2633 19.2286 10.2592C19.2368 10.2429 19.2409 10.2225 19.249 10.2021C19.249 10.198 19.249 10.1939 19.2531 10.1939C19.2572 10.1735 19.2654 10.1572 19.2654 10.1368C19.2654 10.1286 19.2654 10.1245 19.2694 10.1164C19.2735 10.1 19.2735 10.0837 19.2776 10.0674C19.2817 10.0429 19.2817 10.0225 19.2817 9.99796C19.2817 9.97346 19.2817 9.95305 19.2776 9.92856C19.2776 9.91223 19.2735 9.8959 19.2694 9.87957C19.2694 9.8714 19.2694 9.86732 19.2654 9.85916C19.2613 9.83874 19.2572 9.82241 19.2531 9.802C19.2531 9.79792 19.2531 9.79384 19.249 9.79384C19.2449 9.77342 19.2368 9.75709 19.2286 9.73668C19.2286 9.7326 19.2286 9.7326 19.2245 9.72852C19.2164 9.71219 19.2082 9.69177 19.2 9.67544C19.2 9.67136 19.196 9.66728 19.196 9.66728C19.1878 9.65095 19.1796 9.63462 19.1674 9.61829C19.1633 9.61421 19.1633 9.61012 19.1592 9.60604C19.147 9.58971 19.1388 9.57338 19.1266 9.56113C19.1225 9.55705 19.1225 9.55705 19.1184 9.55297C19.1021 9.53664 19.0898 9.51623 19.0694 9.4999L15.0318 5.46642C14.7583 5.1929 14.3133 5.1929 14.0398 5.46642C13.7663 5.73995 13.7663 6.18494 14.0398 6.45846L16.8812 9.29986H5.585C5.19716 9.29986 4.88281 9.61421 4.88281 9.99796C4.88281 10.3858 5.19716 10.7001 5.585 10.7001H16.8853L14.0643 13.5211C13.7908 13.7947 13.7908 14.2396 14.0643 14.5132C14.199 14.6479 14.3786 14.7173 14.5583 14.7173C14.7379 14.7173 14.9175 14.6479 15.0522 14.5132L19.0653 10.5001C19.0857 10.4756 19.1021 10.4593 19.1184 10.4429Z" fill="#E32940"/>
<path d="M4.51952 1.40029H9.74508C10.1329 1.40029 10.4473 1.08594 10.4473 0.702184C10.4473 0.31435 10.1329 0 9.74508 0H4.51952C2.42522 0 0.71875 1.70647 0.71875 3.80078V16.1992C0.71875 18.2935 2.42522 20 4.51952 20H9.65935C10.0472 20 10.3615 19.6856 10.3615 19.3019C10.3615 18.9141 10.0472 18.5997 9.65935 18.5997H4.51952C3.19681 18.5997 2.11904 17.5219 2.11904 16.1992V3.80078C2.12312 2.47397 3.19681 1.40029 4.51952 1.40029Z" fill="#E32940"/>
</g>
<defs>
<clipPath id="clip0_336_2313">
<rect width="20" height="20" fill="white"/>
</clipPath>
</defs>
</svg>
