<svg width="42" height="42" viewBox="0 0 42 42" fill="none" xmlns="http://www.w3.org/2000/svg">
<path d="M33.0807 8.81283C33.4671 7.62425 33.5143 6.35251 33.2169 5.13891C32.9195 3.92531 32.2891 2.81737 31.3959 1.93818C30.1413 0.696918 28.4426 0 26.6717 0C24.9009 0 23.2022 0.696918 21.9475 1.93818C21.8236 2.06886 21.6735 2.17237 21.507 2.24204C21.3404 2.31171 21.161 2.34601 20.9803 2.34274C20.6287 2.33292 20.2947 2.18787 20.0487 1.93818C18.7941 0.696918 17.0954 0 15.3245 0C13.5537 0 11.855 0.696918 10.6003 1.93818C9.70712 2.81737 9.0768 3.92531 8.77939 5.13891C8.48198 6.35251 8.52912 7.62425 8.91559 8.81283C10.4824 14.6205 17.6485 20.4625 20.7831 21.2973C20.9233 21.3347 21.071 21.3347 21.2112 21.2973C24.3458 20.4625 31.5129 14.6155 33.0787 8.81283H33.0807ZM26.6093 15.7111C25.0121 17.3703 23.1071 18.7073 20.9991 19.6485C18.8912 18.7072 16.9862 17.3702 15.3889 15.7111C13.158 13.7259 11.4789 11.2038 10.5131 8.3876C10.203 7.4772 10.1564 6.4986 10.3787 5.56321C10.6011 4.62782 11.0834 3.77323 11.7707 3.09675C12.7155 2.16337 13.9939 1.63942 15.3265 1.63942C16.6591 1.63942 17.9375 2.16337 18.8823 3.09675C19.4288 3.64657 20.1689 3.96418 20.9466 3.98266C21.3502 3.98968 21.751 3.91472 22.1243 3.76238C22.4977 3.61003 22.8358 3.38353 23.1179 3.09675C24.0627 2.16337 25.3411 1.63942 26.6737 1.63942C28.0063 1.63942 29.2847 2.16337 30.2295 3.09675C30.9167 3.77333 31.3988 4.62797 31.6209 5.56336C31.8431 6.49874 31.7964 7.47729 31.4861 8.3876C30.52 11.2039 28.8406 13.726 26.6093 15.7111Z" fill="#0062FF"/>
<path d="M25.7936 5.48775C25.2725 5.49243 24.7745 5.70241 24.4092 6.07156C24.0439 6.4407 23.841 6.93882 23.8452 7.45644V9.19085C23.8543 9.72244 23.6507 10.2359 23.2791 10.6186C22.9076 11.0013 22.3984 11.222 21.8632 11.2324H21.8235V7.12767H22.0386C22.2577 7.12767 22.4678 7.04123 22.6227 6.88736C22.7776 6.7335 22.8646 6.52481 22.8646 6.30721C22.8646 6.08961 22.7776 5.88093 22.6227 5.72707C22.4678 5.5732 22.2577 5.48676 22.0386 5.48676H19.9575C19.7384 5.48676 19.5283 5.5732 19.3734 5.72707C19.2185 5.88093 19.1314 6.08961 19.1314 6.30721C19.1314 6.52481 19.2185 6.7335 19.3734 6.88736C19.5283 7.04123 19.7384 7.12767 19.9575 7.12767H20.1725V11.2284H20.1329C19.5977 11.2181 19.0885 10.9974 18.717 10.6147C18.3454 10.2319 18.1418 9.71849 18.1508 9.18691V7.45644C18.1531 7.2001 18.1044 6.94583 18.0077 6.70817C17.911 6.4705 17.7681 6.25408 17.5872 6.07127C17.4062 5.88846 17.1908 5.74284 16.9533 5.64272C16.7157 5.54259 16.4606 5.48994 16.2025 5.48775C15.9834 5.48775 15.7733 5.57419 15.6184 5.72805C15.4635 5.88192 15.3765 6.0906 15.3765 6.3082C15.3765 6.52579 15.4635 6.73448 15.6184 6.88835C15.7733 7.04221 15.9834 7.12865 16.2025 7.12865C16.2848 7.13373 16.362 7.17049 16.4175 7.23114C16.473 7.2918 16.5025 7.37156 16.4998 7.45348V9.18789C16.4911 10.1542 16.8685 11.0846 17.5494 11.7749C18.2303 12.4652 19.159 12.8592 20.1319 12.8703H20.1715V15.3312H19.9565C19.7374 15.3312 19.5273 15.4176 19.3724 15.5715C19.2175 15.7254 19.1304 15.934 19.1304 16.1516C19.1304 16.3692 19.2175 16.5779 19.3724 16.7318C19.5273 16.8856 19.7374 16.9721 19.9565 16.9721H22.0376C22.2567 16.9721 22.4668 16.8856 22.6217 16.7318C22.7766 16.5779 22.8636 16.3692 22.8636 16.1516C22.8636 15.934 22.7766 15.7254 22.6217 15.5715C22.4668 15.4176 22.2567 15.3312 22.0376 15.3312H21.8226V12.8703H21.8622C22.8351 12.8592 23.7638 12.4652 24.4447 11.7749C25.1255 11.0846 25.503 10.1542 25.4943 9.18789V7.45644C25.4916 7.37451 25.5211 7.29476 25.5766 7.2341C25.6321 7.17345 25.7092 7.13668 25.7916 7.1316C26.0107 7.1316 26.2208 7.04516 26.3757 6.8913C26.5306 6.73743 26.6176 6.52875 26.6176 6.31115C26.6176 6.09356 26.5306 5.88487 26.3757 5.731C26.2208 5.57714 26.0107 5.4907 25.7916 5.4907L25.7936 5.48775Z" fill="#0062FF"/>
<path d="M38.4544 8.30297H38.2829C37.3856 8.2874 36.5187 8.62552 35.8718 9.24334C35.2249 9.86116 34.8507 10.7084 34.8312 11.5995L34.6736 19.6052C34.1519 19.6397 33.6499 19.8165 33.2228 20.1161C32.2395 20.8463 31.3265 21.6655 30.4955 22.5632C29.9653 23.0888 29.3647 23.6853 28.677 24.3419C24.8585 27.9839 24.5236 30.7903 24.4473 34.6479C24.4473 34.6529 24.4473 34.6588 24.4473 34.6637V41.18C24.4473 41.3975 24.5342 41.6061 24.6891 41.7598C24.8439 41.9136 25.0539 42 25.2728 42H32.9919C33.2108 42 33.4208 41.9136 33.5756 41.7598C33.7304 41.6061 33.8174 41.3975 33.8174 41.18V34.7552L38.3136 29.6918C39.4712 28.3838 40.0733 26.681 39.9934 24.9413V9.88088C39.9936 9.47123 39.8331 9.07763 39.5459 8.78359C39.2588 8.48955 38.8676 8.31821 38.4554 8.30592L38.4544 8.30297ZM38.3404 24.9384C38.4178 26.2763 37.9637 27.591 37.0759 28.6001L32.3705 33.8988C32.2376 34.0487 32.1644 34.2416 32.1644 34.4412V40.3561H26.0973V34.6686C26.1677 31.1348 26.3867 28.8 29.8206 25.5211C30.5143 24.8537 31.1258 24.2523 31.6609 23.7207C32.415 22.9077 33.2383 22.1608 34.1216 21.4883C34.6696 21.1339 34.8609 21.2343 35.0393 21.3406L35.0601 21.3534C35.1037 21.381 35.1949 21.4518 35.2246 21.7097C35.3445 22.7787 34.2247 25.0742 32.1406 27.0636C31.9888 27.2156 31.903 27.4207 31.9014 27.6348C31.8998 27.8489 31.9826 28.0552 32.1321 28.2094C32.2816 28.3637 32.4859 28.4538 32.7014 28.4604C32.9169 28.467 33.1264 28.3896 33.2852 28.2448C35.5903 26.0428 37.063 23.2798 36.8658 21.5257C36.8275 21.0561 36.6325 20.6127 36.3118 20.2657L36.4822 11.6271C36.4934 11.1711 36.6854 10.7379 37.0165 10.4217C37.3476 10.1056 37.791 9.93207 38.2502 9.93895H38.3414V24.9354L38.3404 24.9384Z" fill="#0062FF"/>
<path d="M15.8358 27.3254C15.72 27.1407 15.5351 27.0092 15.3218 26.9599C15.1084 26.9106 14.8841 26.9476 14.6981 27.0626C14.5122 27.1776 14.3798 27.3612 14.3302 27.5731C14.2806 27.7851 14.3177 28.0079 14.4335 28.1926C15.7149 30.238 15.8507 32.1674 15.9002 34.6676V40.3551H9.83319V34.4402C9.83327 34.2405 9.75997 34.0477 9.62706 33.8978L4.91971 28.5972C4.03364 27.5883 3.58076 26.2749 3.65814 24.9383V9.94187H3.74832C4.20754 9.93499 4.65091 10.1085 4.98201 10.4246C5.3131 10.7408 5.50512 11.174 5.5163 11.63L5.68676 20.2686C5.366 20.6156 5.17104 21.059 5.13278 21.5286C4.93457 23.2827 6.40723 26.0457 8.71334 28.2477C8.87213 28.3925 9.08167 28.4699 9.29715 28.4633C9.51263 28.4567 9.71696 28.3666 9.86646 28.2124C10.016 28.0581 10.0988 27.8518 10.0972 27.6377C10.0956 27.4236 10.0097 27.2186 9.85797 27.0665C7.77682 25.0762 6.65399 22.7816 6.77391 21.7127C6.80265 21.4557 6.89382 21.3839 6.93842 21.3563L6.95625 21.3455C7.37546 21.1004 7.83331 21.2726 9.52796 22.9204C9.60533 22.9959 9.69691 23.0555 9.79747 23.0959C9.89804 23.1362 10.0056 23.1565 10.1141 23.1555C10.2225 23.1546 10.3297 23.1324 10.4295 23.0903C10.5294 23.0482 10.6199 22.987 10.6959 22.9101C10.7719 22.8333 10.8319 22.7423 10.8725 22.6424C10.9131 22.5425 10.9335 22.4357 10.9326 22.3279C10.9316 22.2202 10.9093 22.1137 10.8669 22.0146C10.8245 21.9154 10.7628 21.8255 10.6855 21.7501C9.61814 20.7086 8.52306 19.6396 7.32591 19.6002L7.16833 11.5956C7.14881 10.7044 6.77466 9.8572 6.12776 9.23938C5.48086 8.62156 4.6139 8.28343 3.71661 8.299H3.54516C3.13292 8.31129 2.74172 8.48263 2.45457 8.77667C2.16742 9.07071 2.00691 9.46431 2.00709 9.87395V24.9344C1.92698 26.6727 2.52797 28.3743 3.6839 29.6819L8.18215 34.7473V41.1721C8.18215 41.3896 8.26912 41.5982 8.42394 41.7519C8.57876 41.9057 8.78873 41.9921 9.00767 41.9921H16.7267C16.9457 41.9921 17.1557 41.9057 17.3105 41.7519C17.4653 41.5982 17.5523 41.3896 17.5523 41.1721V34.6558C17.5523 34.6509 17.5523 34.645 17.5523 34.64C17.4987 31.9646 17.3392 29.7242 15.8358 27.3254Z" fill="#0062FF"/>
<path d="M13.5763 24.9285C13.5763 24.711 13.4893 24.5025 13.3345 24.3487C13.1797 24.1949 12.9697 24.1085 12.7508 24.1085C12.5876 24.1087 12.4281 24.157 12.2924 24.2472C12.1568 24.3374 12.0512 24.4655 11.9888 24.6154C11.9265 24.7652 11.9103 24.9301 11.9423 25.0891C11.9742 25.2481 12.0529 25.3941 12.1684 25.5086C12.2839 25.6232 12.431 25.7012 12.5911 25.7328C12.7512 25.7643 12.9171 25.748 13.0679 25.6859C13.2187 25.6238 13.3476 25.5188 13.4383 25.3839C13.5289 25.2491 13.5773 25.0906 13.5773 24.9285H13.5763Z" fill="#0062FF"/>
</svg>
