<svg width="42" height="42" viewBox="0 0 42 42" fill="none" xmlns="http://www.w3.org/2000/svg">
<path d="M35.3093 4.18276C29.7243 -0.156619 24.9093 -0.951431 16.2433 1.02326C13.8883 1.55938 11.2243 2.37789 9.30425 4.38023C8.05389 5.7002 7.08924 7.25804 6.46925 8.95854C6.20608 9.70714 5.99164 10.4716 5.82725 11.2472L5.77125 11.4891C5.61404 12.054 5.40414 12.6034 5.14425 13.1301C4.76688 13.7672 4.56582 14.4911 4.56125 15.2292C4.70455 15.854 5.07044 16.4073 5.59225 16.7882C5.93925 17.1022 6.16725 17.3233 6.16925 17.5247C6.13893 17.6384 6.09283 17.7474 6.03225 17.8486C5.91881 18.0473 5.83718 18.2621 5.79025 18.4854C5.69199 19.3234 5.34395 20.1138 4.79025 20.7563C2.56425 23.1259 1.92825 23.9415 2.00625 24.7866C2.06556 25.0776 2.1888 25.3522 2.36728 25.5911C2.54577 25.8299 2.77515 26.0272 3.03925 26.1689C3.27294 26.3304 3.51979 26.4724 3.77725 26.5935C4.07725 26.7475 4.59325 27.0052 4.62825 27.1859C4.67435 27.4231 4.64681 27.6684 4.54925 27.8899C4.44925 28.11 4.33625 28.2986 4.24225 28.4635C3.96625 28.9463 3.54925 29.676 4.20225 30.221C4.35525 30.3543 4.61725 30.5587 4.85625 30.7393C4.67822 31.0468 4.59873 31.4004 4.62825 31.7533C4.64667 31.8888 4.6931 32.0191 4.76466 32.1362C4.83622 32.2532 4.93139 32.3544 5.04425 32.4336C5.20507 32.5438 5.37199 32.645 5.54425 32.7367C5.95925 32.9707 6.12125 33.0803 6.17725 33.2966C6.22883 33.5584 6.20846 33.8291 6.11825 34.0805C5.88334 34.903 5.92331 35.7783 6.23225 36.5765C6.40587 37.2185 6.82323 37.7699 7.39769 38.116C7.97215 38.4622 8.65957 38.5767 9.31725 38.4357C11.3358 37.9541 13.3264 37.3648 15.2803 36.6703C16.5471 37.6575 17.4527 39.0263 17.8593 40.5684C18.002 40.9844 18.2729 41.3461 18.6339 41.6028C18.995 41.8594 19.4283 41.9983 19.8733 42H34.1673C34.529 41.9994 34.8846 41.9077 35.2004 41.7336C35.5163 41.5594 35.7819 41.3086 35.9721 41.0048C36.1623 40.701 36.2709 40.3543 36.2876 39.9975C36.3042 39.6407 36.2284 39.2857 36.0673 38.9659C35.1821 37.0217 34.6312 34.9456 34.4373 32.8226C34.1855 30.7295 34.5034 28.6079 35.3583 26.6764C35.8678 25.6316 36.4962 24.6475 37.2313 23.743C38.6313 21.872 40.2223 19.7542 40.2743 16.1464C40.3165 14.1405 40.0676 12.1389 39.5353 10.2026C38.8225 7.797 37.3398 5.684 35.3093 4.17979V4.18276ZM36.0933 22.9097C35.2937 23.8988 34.6115 24.9751 34.0603 26.1176C33.1039 28.277 32.7477 30.649 33.0283 32.9895C33.2408 35.2739 33.8397 37.507 34.8003 39.5958C34.8521 39.7023 34.8757 39.82 34.8691 39.9379C34.8624 40.0559 34.8256 40.1702 34.7621 40.2704C34.6987 40.3705 34.6105 40.4531 34.506 40.5106C34.4015 40.568 34.2839 40.5984 34.1643 40.599H19.8733C19.7237 40.5978 19.5783 40.5505 19.4573 40.4638C19.3363 40.377 19.2457 40.2552 19.1983 40.1152C18.7365 38.6296 17.9411 37.2661 16.8713 36.1263L17.4003 35.9426C17.9243 35.761 18.3213 35.6237 18.5173 35.5615C21.5493 34.6196 23.0663 33.2521 23.0243 31.5085C23.0246 31.4159 23.0059 31.3242 22.9692 31.2389C22.9325 31.1537 22.8785 31.0768 22.8107 31.0128C22.7428 30.9489 22.6625 30.8993 22.5745 30.867C22.4866 30.8348 22.3929 30.8205 22.2993 30.8252C22.2061 30.8273 22.1143 30.8474 22.0291 30.8845C21.9439 30.9216 21.8669 30.9749 21.8025 31.0414C21.7382 31.1079 21.6877 31.1862 21.6541 31.2719C21.6204 31.3577 21.6041 31.4491 21.6063 31.5411C21.6233 32.2628 21.0283 33.3183 18.0893 34.2266C17.8823 34.2908 17.4723 34.433 16.9293 34.6216C16.4213 34.7983 15.7953 35.0165 15.1043 35.2515H15.0983C13.1089 35.9644 11.0819 36.5705 9.02625 37.0672C8.70744 37.1283 8.37709 37.0644 8.10514 36.8891C7.83319 36.7139 7.641 36.441 7.56925 36.1283C7.34795 35.5814 7.32289 34.9762 7.49825 34.4132C7.64473 33.9428 7.66369 33.4427 7.55325 32.9628C7.45334 32.6459 7.28552 32.354 7.06121 32.1068C6.83691 31.8596 6.56135 31.663 6.25325 31.5302L6.10125 31.4443C6.17653 31.2905 6.26732 31.1447 6.37225 31.0089C6.43036 30.9353 6.47299 30.8511 6.49764 30.761C6.52229 30.6709 6.52847 30.5769 6.5158 30.4845C6.50313 30.392 6.47187 30.303 6.42386 30.2227C6.37586 30.1423 6.31207 30.0723 6.23625 30.0166C6.06625 29.8922 5.66225 29.5921 5.37125 29.362C5.40725 29.2958 5.44725 29.2218 5.48525 29.1586C5.59325 28.969 5.71825 28.7489 5.83925 28.4991C6.0654 28.0098 6.13214 27.4634 6.03025 26.9351C5.86525 26.0761 5.03825 25.6585 4.43025 25.3554C4.24457 25.2695 4.06544 25.1705 3.89425 25.0592C3.72801 24.9452 3.57118 24.8184 3.42525 24.68C3.43725 24.2752 4.99625 22.6145 5.83525 21.718C6.58013 20.8755 7.05272 19.8322 7.19225 18.7224C7.22242 18.6419 7.25851 18.5637 7.30025 18.4884C7.4771 18.1926 7.57675 17.8581 7.59025 17.5149C7.55514 17.1654 7.44415 16.8275 7.26485 16.5243C7.08556 16.221 6.84216 15.9594 6.55125 15.7574C6.26825 15.4987 5.99525 15.2538 5.96525 15.0376C6.05109 14.5712 6.21071 14.1211 6.43825 13.7037C6.73501 13.0955 6.97242 12.4607 7.14725 11.808L7.20925 11.5632C7.36074 10.8447 7.5578 10.1364 7.79925 9.44234C8.35442 7.92004 9.21761 6.52524 10.3363 5.34289C11.9923 3.61207 14.3053 2.89822 16.5633 2.38085C25.8093 0.279787 29.8343 1.7065 34.4373 5.28463C36.2368 6.59969 37.5499 8.46117 38.1753 10.5837C38.6703 12.3896 38.901 14.2562 38.8603 16.1267C38.8153 19.2862 37.4943 21.0446 36.0953 22.9107L36.0933 22.9097Z" fill="#0062FF"/>
<path d="M30.4134 11.7536C30.9074 12.2716 31.5762 12.5936 32.2938 12.659C33.0114 12.7244 33.7285 12.5286 34.3102 12.1086C34.892 11.6886 35.2983 11.0732 35.4527 10.3782C35.6072 9.68318 35.4991 8.95639 35.1489 8.33449C34.7987 7.71259 34.2305 7.23843 33.551 7.00117C32.8716 6.76391 32.1278 6.77989 31.4594 7.04611C30.7911 7.31233 30.2443 7.81045 29.9218 8.44681C29.5994 9.08316 29.5234 9.8139 29.7084 10.5016C28.8341 11.2497 28.1202 12.1628 27.6084 13.1872C27.1547 12.8519 26.6614 12.5724 26.1394 12.3549C25.628 11.0943 25.5518 9.70238 25.9224 8.39464C25.9704 8.39464 26.0164 8.40847 26.0644 8.40847C26.754 8.41375 27.4223 8.17265 27.946 7.72963C28.4697 7.28661 28.8136 6.67156 28.914 5.99791C29.0145 5.32426 28.8649 4.63745 28.4928 4.06416C28.1207 3.49087 27.5512 3.06975 26.8893 2.8785C26.2274 2.68724 25.5178 2.73873 24.8914 3.02348C24.2649 3.30823 23.7639 3.80702 23.4807 4.42787C23.1975 5.04872 23.1512 5.74974 23.3503 6.40165C23.5495 7.05355 23.9807 7.61237 24.5644 7.97502C24.2586 9.2007 24.2103 10.4752 24.4224 11.72C23.8224 11.5331 23.1607 11.3587 22.4374 11.1967C21.7854 11.0516 21.1654 10.9292 20.5814 10.8245C19.9862 10.311 19.5379 9.65218 19.2814 8.91399C19.9271 8.67094 20.4611 8.2039 20.7833 7.60026C21.1055 6.99663 21.1938 6.29776 21.0319 5.63443C20.8699 4.9711 20.4687 4.38876 19.9034 3.99637C19.338 3.60399 18.6472 3.42845 17.9602 3.5026C17.2732 3.57675 16.6371 3.89551 16.171 4.39924C15.7048 4.90296 15.4405 5.55713 15.4275 6.23935C15.4146 6.92156 15.6538 7.58506 16.1005 8.1057C16.5472 8.62635 17.1707 8.96846 17.8544 9.06801C17.996 9.55988 18.1974 10.033 18.4544 10.477C17.0544 10.2736 15.7294 10.1274 14.6664 10.0267C14.5502 9.35225 14.1888 8.74279 13.65 8.31266C13.1111 7.88252 12.4318 7.66126 11.7396 7.69037C11.0473 7.71948 10.3895 7.99696 9.88965 8.47078C9.38979 8.94459 9.08219 9.58218 9.02453 10.264C8.96686 10.9457 9.16309 11.6249 9.57643 12.174C9.98976 12.7231 10.5918 13.1044 11.2696 13.2465C11.9474 13.3886 12.6545 13.2816 13.2581 12.9457C13.8617 12.6098 14.3205 12.0679 14.5484 11.4218C16.0584 11.562 18.0924 11.8 20.1224 12.1633L20.2354 12.1841C19.5198 12.7461 18.8856 13.4022 18.3504 14.1341C18.0914 14.0534 17.8219 14.0105 17.5504 14.0067C16.8929 14.0043 16.2549 14.2267 15.7447 14.6362C15.2345 15.0456 14.8836 15.6168 14.7517 16.2528C14.6197 16.8887 14.7149 17.5502 15.0209 18.1247C15.327 18.6993 15.8251 19.1514 16.4306 19.4044C17.036 19.6574 17.7116 19.6957 18.3424 19.5126C18.9732 19.3295 19.5203 18.9365 19.8908 18.4002C20.2613 17.864 20.4324 17.2176 20.3749 16.5709C20.3174 15.9242 20.0349 15.3172 19.5754 14.8529C20.1648 14.0366 20.9198 13.3504 21.7924 12.8377C21.9608 12.7476 22.136 12.6703 22.3164 12.6067C23.3182 12.8271 24.3012 13.1242 25.2564 13.4953C25.2781 13.5072 25.3005 13.5181 25.3234 13.5278L25.3354 13.5338L25.3464 13.5397C25.9452 13.7551 26.497 14.0812 26.9724 14.5004C27.0598 14.5865 27.1352 14.6838 27.1964 14.7897C27.5224 15.3317 27.4514 16.1364 26.9694 17.3242C26.7064 17.9788 26.3604 18.661 25.9944 19.3838C24.7444 21.8521 23.3274 24.6404 25.6124 26.4522C28.2784 28.5582 28.3724 35.8319 28.1834 38.4524C28.1699 38.6375 28.2314 38.8203 28.3544 38.9607C28.4775 39.101 28.6519 39.1874 28.8394 39.2008H28.8894C29.0691 39.2012 29.2422 39.1343 29.3738 39.0135C29.5054 38.8927 29.5857 38.7271 29.5984 38.5501C29.6284 38.1354 30.2904 28.3518 26.4984 25.3582C25.2044 24.3343 25.9604 22.5769 27.2614 20.0117C27.5774 19.3897 27.8924 18.7519 28.1614 18.1289C28.5109 18.0452 28.8764 18.0528 29.222 18.151C29.5676 18.2491 29.8813 18.4344 30.1324 18.6887C29.7238 19.2514 29.5372 19.9419 29.6075 20.6307C29.6778 21.3196 30.0002 21.9594 30.5143 22.4303C31.0284 22.9011 31.6988 23.1706 32.3998 23.1882C33.1008 23.2058 33.7842 22.9703 34.3218 22.5258C34.8595 22.0813 35.2144 21.4585 35.3201 20.7741C35.4257 20.0896 35.2749 19.3906 34.8958 18.8082C34.5167 18.2258 33.9354 17.7999 33.2609 17.6105C32.5865 17.4211 31.8652 17.4811 31.2324 17.7793C30.5428 17.116 29.6352 16.7188 28.6744 16.6597C28.8823 15.9237 28.8494 15.1417 28.5804 14.4253C28.9873 13.4172 29.6078 12.5066 30.4004 11.7546L30.4134 11.7536ZM32.4444 8.40847C32.7248 8.40847 32.999 8.49058 33.2322 8.64442C33.4654 8.79826 33.6471 9.01692 33.7544 9.27274C33.8618 9.52857 33.8898 9.81007 33.8351 10.0817C33.7804 10.3532 33.6454 10.6027 33.447 10.7985C33.2487 10.9943 32.9961 11.1277 32.721 11.1817C32.4459 11.2357 32.1608 11.208 31.9017 11.102C31.6426 10.996 31.4212 10.8166 31.2653 10.5863C31.1095 10.3561 31.0264 10.0854 31.0264 9.80852C31.0265 9.62466 31.0633 9.44263 31.1347 9.27282C31.2061 9.10301 31.3106 8.94874 31.4424 8.81882C31.5742 8.68891 31.7306 8.58589 31.9027 8.51565C32.0747 8.44541 32.2592 8.40932 32.4454 8.40945L32.4444 8.40847ZM26.0654 4.2093C26.3458 4.2093 26.62 4.29141 26.8532 4.44525C27.0864 4.59909 27.2681 4.81775 27.3754 5.07357C27.4828 5.3294 27.5108 5.6109 27.4561 5.88249C27.4014 6.15407 27.2664 6.40354 27.0681 6.59934C26.8697 6.79514 26.6171 6.92848 26.342 6.9825C26.0669 7.03652 25.7818 7.00879 25.5227 6.90283C25.2636 6.79686 25.0422 6.61741 24.8863 6.38717C24.7305 6.15694 24.6474 5.88625 24.6474 5.60935C24.6474 5.23803 24.7968 4.88192 25.0627 4.61936C25.3286 4.3568 25.6893 4.2093 26.0654 4.2093ZM16.8514 6.30839C16.8514 6.03148 16.9345 5.7608 17.0903 5.53056C17.2462 5.30032 17.4676 5.12087 17.7267 5.01491C17.9858 4.90894 18.2709 4.88121 18.546 4.93523C18.8211 4.98926 19.0737 5.1226 19.272 5.3184C19.4704 5.5142 19.6054 5.76367 19.6601 6.03525C19.7148 6.30683 19.6868 6.58834 19.5794 6.84416C19.4721 7.09999 19.2904 7.31865 19.0572 7.47249C18.824 7.62633 18.5498 7.70844 18.2694 7.70844C17.8933 7.70844 17.5326 7.56094 17.2667 7.29838C17.0008 7.03581 16.8514 6.67971 16.8514 6.30839ZM11.8894 11.9066C11.6089 11.9066 11.3348 11.8245 11.1016 11.6707C10.8684 11.5168 10.6866 11.2982 10.5793 11.0423C10.472 10.7865 10.4439 10.505 10.4986 10.2334C10.5533 9.96185 10.6884 9.71239 10.8867 9.51658C11.085 9.32078 11.3377 9.18744 11.6127 9.13342C11.8878 9.0794 12.1729 9.10712 12.432 9.21309C12.6911 9.31906 12.9126 9.49851 13.0684 9.72874C13.2242 9.95898 13.3074 10.2297 13.3074 10.5066C13.3076 10.8777 13.1586 11.2338 12.8931 11.4965C12.6276 11.7592 12.2673 11.9071 11.8914 11.9076L11.8894 11.9066ZM17.5594 18.2049C17.2789 18.2049 17.0048 18.1228 16.7716 17.9689C16.5384 17.8151 16.3566 17.5964 16.2493 17.3406C16.142 17.0848 16.1139 16.8033 16.1686 16.5317C16.2233 16.2601 16.3584 16.0107 16.5567 15.8149C16.755 15.6191 17.0077 15.4857 17.2827 15.4317C17.5578 15.3777 17.8429 15.4054 18.102 15.5114C18.3611 15.6173 18.5826 15.7968 18.7384 16.027C18.8942 16.2572 18.9774 16.5279 18.9774 16.8048C18.9775 16.9887 18.941 17.1708 18.8698 17.3407C18.7987 17.5106 18.6943 17.665 18.5628 17.7951C18.4312 17.9252 18.2749 18.0285 18.1029 18.0989C17.931 18.1694 17.7466 18.2058 17.5604 18.2059L17.5594 18.2049ZM33.8594 20.304C33.8594 20.5809 33.7762 20.8516 33.6204 21.0818C33.4646 21.3121 33.2431 21.4915 32.984 21.5975C32.7249 21.7034 32.4398 21.7312 32.1647 21.6771C31.8897 21.6231 31.637 21.4898 31.4387 21.294C31.2404 21.0982 31.1053 20.8487 31.0506 20.5771C30.9959 20.3055 31.024 20.024 31.1313 19.7682C31.2386 19.5124 31.4204 19.2937 31.6536 19.1399C31.8868 18.986 32.1609 18.9039 32.4414 18.9039C32.6279 18.9035 32.8127 18.9395 32.9852 19.0097C33.1576 19.08 33.3143 19.1831 33.4463 19.3133C33.5783 19.4434 33.683 19.598 33.7544 19.7682C33.8258 19.9384 33.8625 20.1208 33.8624 20.305L33.8594 20.304Z" fill="#0062FF"/>
</svg>
