<svg width="24" height="24" viewBox="0 0 24 24" fill="none" xmlns="http://www.w3.org/2000/svg">
<path d="M10.8383 3.45647C8.04514 3.93503 6.23986 5.99999 6.23986 9.11999C6.23986 16.38 3.35986 16.1107 3.35986 17.28C3.35986 19.2 7.67986 19.68 11.9999 19.68C16.3199 19.68 20.6399 19.2 20.6399 17.28C20.6399 16.1107 17.7599 16.38 17.7599 9.11999C17.7599 5.99999 15.9253 3.89903 13.0928 3.44495" stroke="#8C97AB" stroke-width="1.6" stroke-miterlimit="10"/>
<path d="M12.0001 0.959991C11.6181 0.959991 11.2519 1.11171 10.9818 1.38176C10.7118 1.65181 10.5601 2.01808 10.5601 2.39999C10.5601 2.7819 10.7118 3.14817 10.9818 3.41823C11.2519 3.68828 11.6181 3.83999 12.0001 3.83999C12.382 3.83999 12.7482 3.68828 13.0183 3.41823C13.2883 3.14817 13.4401 2.7819 13.4401 2.39999C13.4401 2.01808 13.2883 1.65181 13.0183 1.38176C12.7482 1.11171 12.382 0.959991 12.0001 0.959991Z" stroke="#8C97AB" stroke-width="1.6" stroke-miterlimit="10"/>
<path d="M14.2009 19.6815C14.3291 19.9752 14.4001 20.2992 14.4001 20.64C14.4001 21.9658 13.3259 23.04 12.0001 23.04C10.6743 23.04 9.6001 21.9658 9.6001 20.64C9.6001 20.3218 9.66202 20.0179 9.77482 19.74" stroke="#8C97AB" stroke-width="1.6" stroke-miterlimit="10"/>
</svg>
