<svg width="19" height="20" viewBox="0 0 19 20" fill="none" xmlns="http://www.w3.org/2000/svg">
<path d="M3.34995 7.08601H5.76295C5.84232 7.08547 5.91934 7.059 5.98227 7.01063C6.04521 6.96227 6.09061 6.89466 6.11156 6.8181C6.13251 6.74154 6.12787 6.66023 6.09833 6.58656C6.06879 6.51289 6.01598 6.45089 5.94795 6.41001L5.58195 6.19301C5.94294 5.83515 6.21001 5.39371 6.35946 4.90786C6.50891 4.42202 6.53612 3.90679 6.43866 3.40791C6.3412 2.90903 6.1221 2.44192 5.8008 2.04803C5.47949 1.65415 5.06592 1.34567 4.59679 1.14998C4.12766 0.954283 3.61747 0.877423 3.11151 0.926219C2.60554 0.975015 2.11945 1.14796 1.69636 1.4297C1.27328 1.71144 0.926281 2.09327 0.686173 2.5413C0.446064 2.98932 0.320267 3.4897 0.319946 3.99801C0.328132 4.8045 0.648212 5.57651 1.21308 6.15219C1.77796 6.72787 2.54376 7.06253 3.34995 7.08601V7.08601ZM4.47395 3.73201C4.52656 3.73201 4.57798 3.74761 4.62173 3.77684C4.66547 3.80606 4.69957 3.84761 4.7197 3.89621C4.73983 3.94482 4.7451 3.9983 4.73484 4.0499C4.72457 4.1015 4.69924 4.1489 4.66204 4.1861C4.62484 4.2233 4.57744 4.24863 4.52584 4.2589C4.47424 4.26916 4.42076 4.26389 4.37215 4.24376C4.32355 4.22363 4.282 4.18953 4.25278 4.14579C4.22355 4.10205 4.20795 4.05062 4.20795 3.99801C4.20795 3.92746 4.23597 3.8598 4.28586 3.80992C4.33574 3.76003 4.4034 3.73201 4.47395 3.73201V3.73201ZM3.40895 3.73201C3.46156 3.73201 3.51298 3.74761 3.55673 3.77684C3.60047 3.80606 3.63457 3.84761 3.6547 3.89621C3.67483 3.94482 3.6801 3.9983 3.66984 4.0499C3.65957 4.1015 3.63424 4.1489 3.59704 4.1861C3.55984 4.2233 3.51244 4.24863 3.46084 4.2589C3.40924 4.26916 3.35576 4.26389 3.30715 4.24376C3.25855 4.22363 3.217 4.18953 3.18778 4.14579C3.15855 4.10205 3.14295 4.05062 3.14295 3.99801C3.14295 3.92763 3.17083 3.86013 3.2205 3.81027C3.27017 3.76041 3.33757 3.73227 3.40795 3.73201H3.40895ZM2.34395 3.73201C2.39656 3.73201 2.44798 3.74761 2.49173 3.77684C2.53547 3.80606 2.56957 3.84761 2.5897 3.89621C2.60983 3.94482 2.6151 3.9983 2.60484 4.0499C2.59457 4.1015 2.56924 4.1489 2.53204 4.1861C2.49484 4.2233 2.44744 4.24863 2.39584 4.2589C2.34424 4.26916 2.29076 4.26389 2.24215 4.24376C2.19355 4.22363 2.152 4.18953 2.12278 4.14579C2.09355 4.10205 2.07795 4.05062 2.07795 3.99801C2.07795 3.92763 2.10583 3.86013 2.1555 3.81027C2.20517 3.76041 2.27257 3.73227 2.34295 3.73201H2.34395Z" fill="#5C5F8A"/>
<path d="M18.234 18.558H17.968V14.592C17.9675 14.0825 17.8192 13.5841 17.541 13.1572C17.2629 12.7303 16.8668 12.3933 16.401 12.187L15.001 11.587C15.3446 11.4784 15.6546 11.2831 15.901 11.02C16.2834 10.6139 16.4978 10.0779 16.501 9.52C16.5008 9.01454 16.3199 8.52581 15.991 8.142C15.5732 7.64526 15.3441 7.01706 15.344 6.368V5.094C15.344 3.98434 14.9031 2.92012 14.1185 2.13547C13.3338 1.35082 12.2696 0.910004 11.16 0.910004C10.0503 0.910004 8.98608 1.35082 8.20142 2.13547C7.41677 2.92012 6.97596 3.98434 6.97596 5.094V6.329C6.96537 7.00006 6.72059 7.64632 6.28396 8.156C6.05733 8.42948 5.90175 8.75469 5.83101 9.10275C5.76028 9.45081 5.77659 9.81095 5.87849 10.1512C5.9804 10.4914 6.16474 10.8012 6.41516 11.0531C6.66558 11.305 6.97431 11.4911 7.31396 11.595L5.91996 12.201C5.44237 12.4011 5.03465 12.738 4.74816 13.1694C4.46167 13.6007 4.3092 14.1072 4.30996 14.625V17.76C4.30996 17.8307 4.33804 17.8985 4.38801 17.9484C4.43799 17.9984 4.50578 18.0265 4.57646 18.0265C4.64714 18.0265 4.71492 17.9984 4.7649 17.9484C4.81488 17.8985 4.84296 17.8307 4.84296 17.76V14.624C4.84179 14.2117 4.96234 13.8083 5.18951 13.4642C5.41668 13.1202 5.74035 12.8509 6.11996 12.69L7.86696 11.93V13.53H7.06696C6.95504 13.5302 6.84442 13.554 6.74224 13.5996C6.64006 13.6453 6.5486 13.7119 6.47377 13.7951C6.39894 13.8783 6.3424 13.9763 6.30781 14.0827C6.27322 14.1892 6.26135 14.3017 6.27296 14.413L6.71196 18.554H0.585958C0.515278 18.554 0.447492 18.5821 0.397514 18.6321C0.347536 18.682 0.319458 18.7498 0.319458 18.8205C0.319458 18.8912 0.347536 18.959 0.397514 19.0089C0.447492 19.0589 0.515278 19.087 0.585958 19.087H18.234C18.3046 19.087 18.3724 19.0589 18.4224 19.0089C18.4724 18.959 18.5005 18.8912 18.5005 18.8205C18.5005 18.7498 18.4724 18.682 18.4224 18.6321C18.3724 18.5821 18.3046 18.554 18.234 18.554V18.558ZM14.804 5.139C14.0511 5.23947 13.2884 5.04647 12.674 4.6C12.6463 4.5786 12.6147 4.56285 12.581 4.55365C12.5473 4.54445 12.5121 4.54199 12.4774 4.5464C12.4427 4.55081 12.4092 4.56201 12.3789 4.57936C12.3485 4.5967 12.3219 4.61986 12.3005 4.6475C12.2791 4.67515 12.2633 4.70674 12.2541 4.74047C12.2449 4.7742 12.2424 4.80941 12.2469 4.84409C12.2513 4.87877 12.2625 4.91225 12.2798 4.9426C12.2972 4.97296 12.3203 4.9996 12.348 5.021C12.7336 5.31504 13.1808 5.51809 13.656 5.615V7.065C13.5312 7.37843 13.3272 7.65409 13.064 7.865C12.9291 7.9762 12.7806 8.06963 12.622 8.143C12.5562 8.01412 12.4559 7.90605 12.3323 7.83083C12.2087 7.75561 12.0666 7.7162 11.922 7.717H11.298C11.1931 7.71325 11.0886 7.73066 10.9906 7.76819C10.8926 7.80573 10.8032 7.86261 10.7277 7.93546C10.6522 8.00831 10.5922 8.09562 10.5512 8.19218C10.5102 8.28875 10.489 8.39259 10.489 8.4975C10.489 8.60242 10.5102 8.70626 10.5512 8.80282C10.5922 8.89939 10.6522 8.9867 10.7277 9.05955C10.8032 9.13239 10.8926 9.18928 10.9906 9.22681C11.0886 9.26435 11.1931 9.28176 11.298 9.278H11.922C12.0945 9.27773 12.2621 9.2204 12.3986 9.11495C12.5352 9.0095 12.6331 8.86186 12.677 8.695C13.0127 8.52612 13.3272 8.318 13.614 8.075C13.5232 8.55271 13.2688 8.98382 12.8944 9.29412C12.52 9.60442 12.0492 9.77447 11.563 9.775H10.695C10.1444 9.77132 9.61753 9.55042 9.22896 9.16035C8.84039 8.77028 8.62153 8.24258 8.61996 7.692V5.633C9.51786 5.49389 10.381 5.18469 11.163 4.722C12.1447 4.13846 12.9743 3.33076 13.584 2.365C13.9742 2.71299 14.2851 3.14077 14.4955 3.61937C14.706 4.09797 14.8112 4.61621 14.804 5.139V5.139ZM12.176 8.496C12.1757 8.5616 12.1494 8.62443 12.103 8.67072C12.0565 8.71701 11.9936 8.743 11.928 8.743H11.304C11.2377 8.743 11.1741 8.71666 11.1272 8.66978C11.0803 8.6229 11.054 8.55931 11.054 8.493C11.054 8.4267 11.0803 8.36311 11.1272 8.31623C11.1741 8.26934 11.2377 8.243 11.304 8.243H11.928C11.961 8.243 11.9936 8.24957 12.024 8.26235C12.0545 8.27512 12.082 8.29384 12.1051 8.3174C12.1282 8.34096 12.1464 8.36889 12.1585 8.39956C12.1707 8.43023 12.1766 8.46302 12.176 8.496V8.496ZM7.93396 11.153C7.62612 11.1528 7.32468 11.0651 7.06486 10.9C6.80505 10.7349 6.59758 10.4992 6.4667 10.2206C6.33583 9.94195 6.28695 9.63182 6.32577 9.32644C6.3646 9.02106 6.48952 8.73303 6.68596 8.496C7.20277 7.89125 7.49116 7.12444 7.50096 6.329V5.664H8.08196V7.692C8.08245 8.16589 8.21141 8.63078 8.45512 9.03719C8.69883 9.44361 9.04817 9.77635 9.46596 10C9.44051 10.2104 9.36049 10.4106 9.23384 10.5805C9.1072 10.7505 8.93832 10.8844 8.74396 10.969L8.31996 11.153H7.93396ZM11.269 17.324C11.0689 17.3238 10.8734 17.2643 10.7072 17.1531C10.541 17.0419 10.4114 16.8839 10.3349 16.699C10.2584 16.5142 10.2384 16.3109 10.2774 16.1147C10.3164 15.9185 10.4126 15.7383 10.554 15.5968C10.6954 15.4553 10.8755 15.3588 11.0717 15.3196C11.2678 15.2804 11.4712 15.3002 11.6561 15.3766C11.841 15.4529 11.9991 15.5823 12.1105 15.7484C12.2219 15.9146 12.2816 16.11 12.282 16.31C12.2821 16.443 12.256 16.5748 12.2052 16.6977C12.1544 16.8207 12.0799 16.9324 11.986 17.0266C11.892 17.1208 11.7804 17.1955 11.6575 17.2465C11.5347 17.2975 11.403 17.3239 11.27 17.324H11.269ZM13.869 13.533H8.40196V12.884C9.26438 13.1104 10.1523 13.225 11.044 13.225H11.227C12.1207 13.2092 13.0086 13.0785 13.869 12.836V12.836V13.533ZM13.869 12.28C13.0077 12.5369 12.1155 12.6752 11.217 12.691V12.691C10.2659 12.708 9.31746 12.5875 8.40096 12.333V11.699L8.47796 11.666L8.95296 11.459C9.21053 11.3478 9.43757 11.1763 9.61493 10.9589C9.79228 10.7415 9.91473 10.4847 9.97196 10.21C10.2093 10.2777 10.4551 10.3114 10.702 10.31H11.57C11.818 10.31 12.0649 10.2747 12.303 10.205C12.3609 10.4782 12.4835 10.7336 12.6605 10.9496C12.8374 11.1657 13.0635 11.3363 13.32 11.447L13.827 11.664L13.865 11.68L13.869 12.28ZM13.989 11.153L13.533 10.953C13.3393 10.87 13.1705 10.738 13.0432 10.5701C12.9159 10.4021 12.8345 10.2039 12.807 9.995C13.2244 9.77108 13.5733 9.43823 13.8166 9.03183C14.06 8.62544 14.1887 8.16069 14.189 7.687V5.687C14.267 5.692 14.345 5.695 14.422 5.695C14.5496 5.69486 14.6771 5.68751 14.804 5.673V6.37C14.8041 7.14454 15.0775 7.89421 15.576 8.487V8.487C15.8237 8.77502 15.9602 9.14212 15.961 9.522C15.9588 9.94271 15.7977 10.3471 15.51 10.654C15.3593 10.8137 15.1772 10.9406 14.9752 11.0266C14.7732 11.1126 14.5555 11.156 14.336 11.154L13.989 11.153ZM17.435 18.553H15.828L16.267 14.412C16.2786 14.3007 16.2667 14.1882 16.2321 14.0817C16.1975 13.9753 16.141 13.8773 16.0661 13.7941C15.9913 13.7109 15.8999 13.6443 15.7977 13.5986C15.6955 13.553 15.5849 13.5292 15.473 13.529H14.402V11.91L16.188 12.676C16.5588 12.8409 16.874 13.1097 17.0953 13.4499C17.3166 13.7901 17.4346 14.1871 17.435 14.593V18.553Z" fill="#5C5F8A"/>
<path d="M11.2689 16.791C11.5335 16.791 11.7479 16.5766 11.7479 16.312C11.7479 16.0475 11.5335 15.833 11.2689 15.833C11.0044 15.833 10.7899 16.0475 10.7899 16.312C10.7899 16.5766 11.0044 16.791 11.2689 16.791Z" fill="#5C5F8A"/>
</svg>
